<svg width="56" height="56" viewBox="0 0 56 56" fill="none" xmlns="http://www.w3.org/2000/svg">
<circle cx="28" cy="28" r="28" fill="#5CB986"/>
<g clip-path="url(#clip0_546_1951)">
<path d="M42.0002 37.3333C42.0002 39.2629 40.4299 40.8333 38.5002 40.8333C38.5002 41.4773 37.9775 41.9999 37.3335 41.9999C36.6895 41.9999 36.1669 41.4773 36.1669 40.8333H35.8542C34.6082 40.8333 33.4474 40.1636 32.8232 39.0844C32.5012 38.5268 32.6914 37.8139 33.249 37.4908C33.8055 37.1676 34.5207 37.3589 34.8427 37.9166C35.0504 38.2759 35.4389 38.4999 35.8542 38.4999H38.5002C39.143 38.4999 39.6669 37.9773 39.6669 37.3333C39.6669 36.8923 39.3507 36.5189 38.9155 36.4466L35.3665 35.8551C33.802 35.5949 32.6657 34.2533 32.6657 32.6666C32.6657 30.7369 34.236 29.1666 36.1657 29.1666C36.1657 28.5226 36.6884 27.9999 37.3324 27.9999C37.9764 27.9999 38.499 28.5226 38.499 29.1666H38.8117C40.0577 29.1666 41.2185 29.8363 41.8427 30.9154C42.1647 31.4731 41.9745 32.1859 41.4169 32.5091C40.8604 32.8323 40.1464 32.6409 39.8232 32.0833C39.6155 31.7239 39.227 31.4999 38.8117 31.4999H36.1657C35.5229 31.4999 34.999 32.0226 34.999 32.6666C34.999 33.1076 35.3152 33.4809 35.7504 33.5533L39.2994 34.1448C40.8638 34.4049 42.0002 35.7466 42.0002 37.3333ZM30.3335 16.9609C30.3335 15.8351 30.9612 14.8049 32.0182 14.2846C32.6844 13.9568 33.4508 13.9463 34.1707 14.1318C37.9892 15.1141 41.0179 18.1976 41.922 22.0453C42.1192 22.8853 41.929 23.7474 41.4017 24.4136C40.7612 25.2221 39.7147 25.6678 38.4559 25.6678H33.8335C31.9004 25.6678 30.3335 24.1009 30.3335 22.1678V16.9609ZM32.6669 22.1666C32.6669 22.8106 33.1895 23.3333 33.8335 23.3333H38.4559C38.9727 23.3333 39.3904 23.1956 39.5735 22.9646C39.661 22.8549 39.6855 22.7278 39.6505 22.5773C38.9307 19.5124 36.4854 17.0671 33.4205 16.3496C33.3715 16.3379 33.3249 16.3333 33.2805 16.3333C33.1067 16.3333 32.976 16.4126 32.9072 16.4674C32.7543 16.5888 32.6669 16.7684 32.6669 16.9609V22.1666ZM30.3335 27.9999H28.0002V20.1261C28.0002 19.0318 27.5043 18.0156 26.6398 17.3389C25.8092 16.6879 24.7522 16.4581 23.7453 16.7078C17.9353 18.1439 13.8392 23.5363 14.0048 29.5306C14.1903 36.2179 19.7822 41.8098 26.4707 41.9953C26.5908 41.9988 26.7098 41.9999 26.83 41.9999C27.6968 41.9999 28.5602 41.9136 29.4002 41.7433C30.0313 41.6149 30.4397 40.9989 30.3113 40.3678C30.183 39.7354 29.567 39.3259 28.9359 39.4566C28.153 39.6153 27.3398 39.6818 26.536 39.6631C21.0643 39.5114 16.4898 34.9369 16.3382 29.4653C16.2028 24.5606 19.5535 20.1483 24.3054 18.9734C24.723 18.8708 25.0485 19.0563 25.2025 19.1764C25.4942 19.4039 25.6669 19.7598 25.6669 20.1261V29.1666C25.6669 29.8106 26.1895 30.3333 26.8335 30.3333H30.3335C30.9775 30.3333 31.5002 29.8106 31.5002 29.1666C31.5002 28.5226 30.9775 27.9999 30.3335 27.9999Z" fill="white"/>
</g>
<defs>
<clipPath id="clip0_546_1951">
<rect width="28" height="28" fill="white" transform="translate(14 14)"/>
</clipPath>
</defs>
</svg>
