<svg width="57" height="56" viewBox="0 0 57 56" fill="none" xmlns="http://www.w3.org/2000/svg">
<circle cx="28.75" cy="28" r="28" fill="#5CB986"/>
<g clip-path="url(#clip0_546_1959)">
<path d="M37.1667 18.6667H35.8833C35.3467 16.0067 32.99 14 30.1667 14H27.8333C25.0217 14 22.665 16.0067 22.1167 18.6667H20.8333C17.6133 18.6667 15 21.28 15 24.5V36.1667C15 39.3867 17.6133 42 20.8333 42H37.1667C40.3867 42 43 39.3867 43 36.1667V24.5C43 21.28 40.3867 18.6667 37.1667 18.6667ZM27.8333 16.3333H30.1667C31.6833 16.3333 32.99 17.3133 33.4683 18.6667H24.5317C25.01 17.3133 26.305 16.3333 27.8333 16.3333ZM40.6667 36.1667C40.6667 38.0917 39.0917 39.6667 37.1667 39.6667H20.8333C18.9083 39.6667 17.3333 38.0917 17.3333 36.1667V24.5C17.3333 22.575 18.9083 21 20.8333 21H37.1667C39.0917 21 40.6667 22.575 40.6667 24.5V36.1667ZM35.0083 27.8833C35.6383 28.5133 36 29.4 36 30.3333C36 31.2667 35.6383 32.1417 34.9733 32.8067L32.185 35.7933C31.9517 36.0383 31.6483 36.1667 31.3333 36.1667C31.0533 36.1667 30.7617 36.0617 30.54 35.8517C30.0733 35.4083 30.0383 34.6733 30.4817 34.2067L33.0017 31.5H23.1667C22.525 31.5 22 30.975 22 30.3333C22 29.6917 22.525 29.1667 23.1667 29.1667H33.0017L30.4817 26.46C30.0383 25.9933 30.0733 25.2467 30.54 24.815C31.0067 24.3717 31.7533 24.4067 32.185 24.8733L34.9967 27.895L35.0083 27.8833Z" fill="white"/>
</g>
<defs>
<clipPath id="clip0_546_1959">
<rect width="28" height="28" fill="white" transform="translate(15 14)"/>
</clipPath>
</defs>
</svg>
