<svg width="57" height="56" viewBox="0 0 57 56" fill="none" xmlns="http://www.w3.org/2000/svg">
<circle cx="28.5" cy="28" r="28" fill="#5CB986"/>
<path d="M38.3333 28.0002V21.0002C38.3333 18.4218 36.245 16.3335 33.6667 16.3335H24.3333C21.755 16.3335 19.6667 18.4218 19.6667 21.0002V28.0002C17.0883 28.0002 15 30.0885 15 32.6668V35.0002C15 37.5785 17.0883 39.6668 19.6667 39.6668H38.3333C40.9117 39.6668 43 37.5785 43 35.0002V32.6668C43 30.0885 40.9117 28.0002 38.3333 28.0002ZM22 21.0002C22 19.7168 23.05 18.6668 24.3333 18.6668H33.6667C34.95 18.6668 36 19.7168 36 21.0002V32.6668H22V21.0002ZM40.6667 35.0002C40.6667 36.2835 39.6167 37.3335 38.3333 37.3335H19.6667C18.3833 37.3335 17.3333 36.2835 17.3333 35.0002V32.6668C17.3333 31.3835 18.3833 30.3335 19.6667 30.3335V33.8335C19.6667 34.4752 20.1917 35.0002 20.8333 35.0002H37.1667C37.8083 35.0002 38.3333 34.4752 38.3333 33.8335V30.3335C39.6167 30.3335 40.6667 31.3835 40.6667 32.6668V35.0002ZM24.6717 26.9502C24.2167 26.4952 24.2167 25.7602 24.6717 25.3052C25.1267 24.8502 25.8617 24.8502 26.3167 25.3052L27.6817 26.6702C27.915 26.9035 28.2767 26.8918 28.51 26.6702L31.6717 23.5085C32.1267 23.0535 32.8617 23.0535 33.3167 23.5085C33.7717 23.9635 33.7717 24.6985 33.3167 25.1535L30.155 28.3152C29.5833 28.8868 28.8367 29.1668 28.09 29.1668C27.3433 29.1668 26.5967 28.8868 26.025 28.3152L24.66 26.9502H24.6717Z" fill="white"/>
</svg>
