<svg width="57" height="56" viewBox="0 0 57 56" fill="none" xmlns="http://www.w3.org/2000/svg">
<circle cx="28.25" cy="28" r="28" fill="#5CB986"/>
<g clip-path="url(#clip0_546_1975)">
<path d="M42 28C42 35.7198 35.7198 42 28 42C20.2802 42 14 35.7198 14 28C14 20.2802 20.2802 14 28 14C28.6452 14 29.1667 14.5215 29.1667 15.1667C29.1667 15.8118 28.6452 16.3333 28 16.3333C21.567 16.3333 16.3333 21.567 16.3333 28C16.3333 34.433 21.567 39.6667 28 39.6667C34.433 39.6667 39.6667 34.433 39.6667 28C39.6667 27.3548 40.1882 26.8333 40.8333 26.8333C41.4785 26.8333 42 27.3548 42 28ZM39.6667 14H35C34.3548 14 33.8333 14.5215 33.8333 15.1667C33.8333 15.8118 34.3548 16.3333 35 16.3333H38.017L34.1752 20.1752C33.719 20.6313 33.719 21.3687 34.1752 21.8248C34.4027 22.0523 34.7013 22.1667 35 22.1667C35.2987 22.1667 35.5973 22.0523 35.8248 21.8248L39.6667 17.983V21C39.6667 21.6452 40.1882 22.1667 40.8333 22.1667C41.4785 22.1667 42 21.6452 42 21V16.3333C42 15.0465 40.9535 14 39.6667 14ZM29.1667 21C29.1667 20.3548 28.6452 19.8333 28 19.8333C27.3548 19.8333 26.8333 20.3548 26.8333 21V22.1667C24.9037 22.1667 23.3333 23.737 23.3333 25.6667C23.3333 27.2522 24.4697 28.595 26.0342 28.8552L29.5808 29.4455C30.0172 29.5178 30.3333 29.8912 30.3333 30.3333C30.3333 30.9773 29.8107 31.5 29.1667 31.5H26.5207C26.1053 31.5 25.718 31.2772 25.5092 30.9155C25.1872 30.3567 24.4743 30.1653 23.9155 30.4908C23.3578 30.8128 23.1665 31.5268 23.4908 32.0845C24.1138 33.1637 25.2758 33.8333 26.5218 33.8333H26.8345V35C26.8345 35.6452 27.356 36.1667 28.0012 36.1667C28.6463 36.1667 29.1678 35.6452 29.1678 35V33.8333C31.0975 33.8333 32.6678 32.263 32.6678 30.3333C32.6678 28.7478 31.5315 27.405 29.967 27.1448L26.4203 26.5545C25.984 26.4822 25.6678 26.1088 25.6678 25.6667C25.6678 25.0227 26.1905 24.5 26.8345 24.5H29.4805C29.8958 24.5 30.2832 24.7228 30.492 25.0845C30.8128 25.6422 31.5257 25.8335 32.0857 25.5092C32.6433 25.1872 32.8347 24.4732 32.5103 23.9155C31.8873 22.8363 30.7253 22.1667 29.4793 22.1667H29.1667V21Z" fill="white"/>
</g>
<defs>
<clipPath id="clip0_546_1975">
<rect width="28" height="28" fill="white" transform="translate(14 14)"/>
</clipPath>
</defs>
</svg>
