<svg width="10" height="6" viewBox="0 0 10 6" fill="none" xmlns="http://www.w3.org/2000/svg">
<path d="M9.47256 0.973566C9.41058 0.91108 9.33685 0.861484 9.25561 0.827638C9.17437 0.793793 9.08723 0.776367 8.99923 0.776367C8.91122 0.776367 8.82408 0.793793 8.74284 0.827638C8.6616 0.861484 8.58787 0.91108 8.52589 0.973566L5.47256 4.0269C5.41058 4.08939 5.33685 4.13898 5.25561 4.17283C5.17437 4.20667 5.08723 4.2241 4.99923 4.2241C4.91122 4.2241 4.82408 4.20667 4.74284 4.17283C4.6616 4.13898 4.58787 4.08939 4.52589 4.0269L1.47256 0.973566C1.41058 0.91108 1.33685 0.861484 1.25561 0.827638C1.17437 0.793793 1.08723 0.776367 0.999226 0.776367C0.911218 0.776367 0.824081 0.793793 0.742842 0.827638C0.661602 0.861484 0.587868 0.91108 0.525893 0.973566C0.401726 1.09847 0.332031 1.26744 0.332031 1.44357C0.332031 1.61969 0.401726 1.78866 0.525893 1.91357L3.58589 4.97357C3.96089 5.3481 4.46922 5.55847 4.99923 5.55847C5.52923 5.55847 6.03756 5.3481 6.41256 4.97357L9.47256 1.91357C9.59673 1.78866 9.66642 1.61969 9.66642 1.44357C9.66642 1.26744 9.59673 1.09847 9.47256 0.973566Z" fill="#0D182D"/>
</svg>
