<svg width="24" height="25" viewBox="0 0 24 25" fill="none" xmlns="http://www.w3.org/2000/svg">
<path d="M17.975 7.6464C17.643 7.5804 17.372 7.3734 17.233 7.0774C15.681 3.8064 12.09 1.9774 8.498 2.6394C5.226 3.2394 2.661 5.8514 2.114 9.1404C1.952 10.1114 1.964 11.0834 2.147 12.0304C2.207 12.3394 2.074 12.6834 1.801 12.9314C0.656 13.9724 0 15.4554 0 17.0014C0 20.0334 2.467 22.5014 5.5 22.5014H16.5C20.636 22.5014 24 19.1374 24 15.0014C24 11.4364 21.466 8.3434 17.974 7.6474L17.975 7.6464ZM15.122 15.2084L12.415 17.9154C12.028 18.3024 11.519 18.4974 11.01 18.4994L11.001 18.5014L10.992 18.4994C10.483 18.4974 9.974 18.3024 9.587 17.9154L6.88 15.2084C6.489 14.8174 6.489 14.1854 6.88 13.7944C7.271 13.4034 7.903 13.4034 8.294 13.7944L10.001 15.5014V10.5014C10.001 9.9484 10.449 9.5014 11.001 9.5014C11.553 9.5014 12.001 9.9484 12.001 10.5014V15.5014L13.708 13.7944C14.099 13.4034 14.731 13.4034 15.122 13.7944C15.513 14.1854 15.513 14.8174 15.122 15.2084Z" fill="white"/>
</svg>
