<svg width="25" height="21" viewBox="0 0 25 21" fill="none" xmlns="http://www.w3.org/2000/svg">
<path d="M18.475 5.6464C18.143 5.5804 17.872 5.3734 17.733 5.0774C16.181 1.8064 12.59 -0.0225984 8.998 0.639402C5.726 1.2394 3.161 3.8514 2.614 7.1404C2.452 8.1114 2.464 9.0834 2.647 10.0304C2.707 10.3394 2.574 10.6834 2.301 10.9314C1.156 11.9724 0.5 13.4554 0.5 15.0014C0.5 18.0334 2.967 20.5014 6 20.5014H17C21.136 20.5014 24.5 17.1374 24.5 13.0014C24.5 9.4364 21.966 6.3434 18.474 5.6474L18.475 5.6464ZM15.622 13.2084L12.915 15.9154C12.528 16.3024 12.019 16.4974 11.51 16.4994L11.501 16.5014L11.492 16.4994C10.983 16.4974 10.474 16.3024 10.087 15.9154L7.38 13.2084C6.989 12.8174 6.989 12.1854 7.38 11.7944C7.771 11.4034 8.403 11.4034 8.794 11.7944L10.501 13.5014V8.5014C10.501 7.9484 10.949 7.5014 11.501 7.5014C12.053 7.5014 12.501 7.9484 12.501 8.5014V13.5014L14.208 11.7944C14.599 11.4034 15.231 11.4034 15.622 11.7944C16.013 12.1854 16.013 12.8174 15.622 13.2084Z" fill="#00B962"/>
</svg>
