<svg width="16" height="16" viewBox="0 0 16 16" fill="none" xmlns="http://www.w3.org/2000/svg">
<path d="M10.2675 6.58638L7.20751 3.52638C7.0826 3.40221 6.91364 3.33252 6.73751 3.33252C6.56139 3.33252 6.39242 3.40221 6.26751 3.52638C6.20503 3.58836 6.15543 3.66209 6.12158 3.74333C6.08774 3.82457 6.07031 3.91171 6.07031 3.99971C6.07031 4.08772 6.08774 4.17486 6.12158 4.2561C6.15543 4.33734 6.20503 4.41107 6.26751 4.47305L9.33418 7.52638C9.39666 7.58836 9.44626 7.66209 9.48011 7.74333C9.51395 7.82457 9.53138 7.91171 9.53138 7.99971C9.53138 8.08772 9.51395 8.17486 9.48011 8.2561C9.44626 8.33734 9.39666 8.41107 9.33418 8.47305L6.26751 11.5264C6.14198 11.651 6.0711 11.8204 6.07047 11.9974C6.06985 12.1743 6.13953 12.3442 6.26418 12.4697C6.38883 12.5953 6.55825 12.6661 6.73515 12.6668C6.91206 12.6674 7.08198 12.5977 7.20751 12.473L10.2675 9.41305C10.642 9.03805 10.8524 8.52972 10.8524 7.99971C10.8524 7.46971 10.642 6.96138 10.2675 6.58638Z" fill="#0D182D"/>
</svg>
