<svg width="54" height="40" viewBox="0 0 54 40" fill="none" xmlns="http://www.w3.org/2000/svg">
<g clip-path="url(#clip0_546_5057)">
<path d="M3.96904 39.9999H12.4539V19.3939L0.332672 10.303V36.3636C0.332672 38.3757 1.96298 39.9999 3.96904 39.9999Z" fill="#4285F4"/>
<path d="M41.5448 39.9999H50.0296C52.0418 39.9999 53.666 38.3696 53.666 36.3636V10.303L41.5448 19.3939" fill="#34A853"/>
<path d="M41.5448 3.63643V19.394L53.666 10.3031V5.45461C53.666 0.957638 48.5327 -1.606 44.9387 1.09097" fill="#FBBC04"/>
<path d="M12.4539 19.3939V3.63635L26.9993 14.5454L41.5448 3.63635V19.3939L26.9993 30.303" fill="#EA4335"/>
<path d="M0.332672 5.45461V10.3031L12.4539 19.394V3.63643L9.05995 1.09097C5.45995 -1.606 0.332672 0.957638 0.332672 5.45461Z" fill="#C5221F"/>
</g>
<defs>
<clipPath id="clip0_546_5057">
<rect width="53.3333" height="40" fill="white" transform="translate(0.333313)"/>
</clipPath>
</defs>
</svg>
