<svg width="56" height="56" viewBox="0 0 56 56" fill="none" xmlns="http://www.w3.org/2000/svg">
<circle cx="28" cy="28" r="28" fill="#00B962"/>
<path d="M23.9165 25.0832C23.9165 25.7261 24.0658 26.3351 24.3318 26.8764C23.7602 27.6091 23.4043 28.5179 23.3565 29.5084C22.2587 28.3557 21.5832 26.7971 21.5832 25.0844C21.5832 21.1049 25.2255 17.9596 29.352 18.8066C31.781 19.3059 33.7492 21.2624 34.2672 23.6879C34.4235 24.4206 34.4527 25.1381 34.3733 25.8241C34.3057 26.4051 33.7958 26.8344 33.2102 26.8344H33.1577C32.467 26.8344 31.9817 26.2196 32.0575 25.5336C32.1088 25.0727 32.082 24.5886 31.9642 24.0951C31.6165 22.6332 30.4242 21.4491 28.96 21.1119C26.293 20.4994 23.9153 22.5201 23.9153 25.0844L23.9165 25.0832ZM19.3782 23.5724C19.6978 21.7139 20.6067 20.0199 22.016 18.6981C23.7998 17.0262 26.1355 16.2002 28.5843 16.3519C33.1962 16.6506 36.8023 20.6907 36.7487 25.5277C36.7265 27.5531 35.0302 29.1654 33.006 29.1654H30.199C29.9143 28.1982 29.03 27.4866 27.9707 27.4866C26.6815 27.4866 25.6373 28.5307 25.6373 29.8199C25.6373 31.1091 26.6815 32.1532 27.9707 32.1532C28.5983 32.1532 29.1665 31.9024 29.5853 31.4987H33.006C36.2948 31.4987 39.0353 28.8796 39.082 25.5919C39.1683 19.5007 34.5927 14.4024 28.7348 14.0244C25.6268 13.8226 22.6787 14.8784 20.4212 16.9971C18.6723 18.6362 17.5092 20.8062 17.0903 23.1407C16.9632 23.8501 17.5243 24.5011 18.2442 24.5011C18.7948 24.5011 19.286 24.1172 19.3782 23.5736V23.5724ZM27.9998 33.8332C23.689 33.8332 19.9592 36.5072 18.719 40.4856C18.5265 41.1004 18.8707 41.7549 19.4855 41.9474C20.0992 42.1329 20.7537 41.7946 20.9462 41.1809C21.8667 38.2292 24.7658 36.1666 27.9987 36.1666C31.2315 36.1666 34.1318 38.2292 35.0512 41.1809C35.2075 41.6802 35.6672 41.9999 36.1653 41.9999C36.2808 41.9999 36.3963 41.9824 36.513 41.9474C37.1278 41.7549 37.4708 41.1004 37.2795 40.4856C36.0393 36.5072 32.3095 33.8332 27.9987 33.8332H27.9998Z" fill="white"/>
</svg>
