<svg width="56" height="56" viewBox="0 0 56 56" fill="none" xmlns="http://www.w3.org/2000/svg">
<circle cx="28" cy="28" r="28" fill="#00B962"/>
<path d="M39.6671 31.7147V23.3333C39.6652 21.7868 39.05 20.3042 37.9565 19.2106C36.8629 18.117 35.3803 17.5019 33.8337 17.5H22.1671C20.6205 17.5019 19.1379 18.117 18.0443 19.2106C16.9508 20.3042 16.3356 21.7868 16.3337 23.3333V31.7147C15.5559 31.9886 14.9002 32.529 14.4827 33.2401C14.0651 33.9512 13.9127 34.7872 14.0525 35.5999C14.1922 36.4126 14.615 37.1496 15.2461 37.6804C15.8772 38.2112 16.6758 38.5016 17.5004 38.5H38.5004C39.325 38.5016 40.1236 38.2112 40.7547 37.6804C41.3858 37.1496 41.8086 36.4126 41.9484 35.5999C42.0881 34.7872 41.9357 33.9512 41.5182 33.2401C41.1006 32.529 40.4449 31.9886 39.6671 31.7147ZM22.1671 19.8333H33.8337C34.762 19.8333 35.6522 20.2021 36.3086 20.8585C36.965 21.5148 37.3337 22.4051 37.3337 23.3333V31.5H32.4909C32.1516 31.4998 31.8163 31.5736 31.5084 31.7162C31.2005 31.8589 30.9275 32.067 30.7082 32.326L30.4201 32.6667H25.5796L25.2926 32.326C25.0734 32.067 24.8003 31.8589 24.4924 31.7162C24.1845 31.5736 23.8492 31.4998 23.5099 31.5H18.6671V23.3333C18.6671 22.4051 19.0358 21.5148 19.6922 20.8585C20.3486 20.2021 21.2388 19.8333 22.1671 19.8333ZM38.5004 36.1667H17.5004C17.191 36.1667 16.8942 36.0438 16.6755 35.825C16.4567 35.6062 16.3337 35.3094 16.3337 35C16.3337 34.6906 16.4567 34.3938 16.6755 34.175C16.8942 33.9562 17.191 33.8333 17.5004 33.8333H23.5111L23.7981 34.174C24.0172 34.4329 24.29 34.6409 24.5977 34.7835C24.9054 34.9262 25.2404 35.0001 25.5796 35H30.4201C30.7594 35.0002 31.0947 34.9264 31.4026 34.7838C31.7105 34.6411 31.9835 34.433 32.2027 34.174L32.4909 33.8333H38.5004C38.8098 33.8333 39.1066 33.9562 39.3254 34.175C39.5442 34.3938 39.6671 34.6906 39.6671 35C39.6671 35.3094 39.5442 35.6062 39.3254 35.825C39.1066 36.0438 38.8098 36.1667 38.5004 36.1667Z" fill="white"/>
</svg>
