<svg width="56" height="56" viewBox="0 0 56 56" fill="none" xmlns="http://www.w3.org/2000/svg">
<circle cx="28" cy="28" r="28" fill="#00B962"/>
<g clip-path="url(#clip0_333_877)">
<path d="M30.3333 15.7502C30.3333 14.7842 31.1173 14.0002 32.0833 14.0002C33.0493 14.0002 33.8333 14.7842 33.8333 15.7502C33.8333 16.7162 33.0493 17.5002 32.0833 17.5002C31.1173 17.5002 30.3333 16.7162 30.3333 15.7502ZM40.25 19.8335C39.284 19.8335 38.5 20.6175 38.5 21.5835C38.5 22.5495 39.284 23.3335 40.25 23.3335C41.216 23.3335 42 22.5495 42 21.5835C42 20.6175 41.216 19.8335 40.25 19.8335ZM40.8333 28.5835V37.9169C40.8333 40.2444 37.8233 42.0002 33.8333 42.0002C31.3238 42.0002 29.204 41.3049 27.9743 40.2105C26.5545 41.3889 24.0625 42.0002 21.5833 42.0002C17.815 42.0002 14 40.5979 14 37.9169V19.2502C14 16.5692 17.815 15.1669 21.5833 15.1669C25.3517 15.1669 29.1667 16.5692 29.1667 19.2502V25.4954C30.3882 24.8724 32.0052 24.5002 33.8333 24.5002C37.8233 24.5002 40.8333 26.256 40.8333 28.5835ZM38.5 31.6717C37.2785 32.2947 35.6615 32.6669 33.8333 32.6669C32.0052 32.6669 30.3882 32.2947 29.1667 31.6717V33.2502C29.1667 33.8674 30.9388 35.0002 33.8333 35.0002C36.7278 35.0002 38.5 33.8674 38.5 33.2502V31.6717ZM26.8333 22.273C25.403 22.9742 23.4885 23.3335 21.5833 23.3335C19.6782 23.3335 17.7637 22.9742 16.3333 22.273V23.9169C16.3333 24.4255 18.1732 25.6669 21.5833 25.6669C24.9935 25.6669 26.8333 24.4255 26.8333 23.9169V22.273ZM16.3333 26.9397V28.5835C16.3333 29.0922 18.1732 30.3335 21.5833 30.3335C24.9935 30.3335 26.8333 29.0922 26.8333 28.5835V26.9397C25.403 27.6409 23.4885 28.0002 21.5833 28.0002C19.6782 28.0002 17.7637 27.6409 16.3333 26.9397ZM16.3333 33.2502C16.3333 33.7589 18.1732 35.0002 21.5833 35.0002C24.9935 35.0002 26.8333 33.7589 26.8333 33.2502V31.6064C25.403 32.3075 23.4885 32.6669 21.5833 32.6669C19.6782 32.6669 17.7637 32.3075 16.3333 31.6064V33.2502ZM29.1667 28.5835C29.1667 29.2007 30.9388 30.3335 33.8333 30.3335C36.7278 30.3335 38.5 29.2007 38.5 28.5835C38.5 27.9664 36.7278 26.8335 33.8333 26.8335C30.9388 26.8335 29.1667 27.9664 29.1667 28.5835ZM16.3333 19.2502C16.3333 19.7589 18.1732 21.0002 21.5833 21.0002C24.9935 21.0002 26.8333 19.7589 26.8333 19.2502C26.8333 18.7415 24.9935 17.5002 21.5833 17.5002C18.1732 17.5002 16.3333 18.7415 16.3333 19.2502ZM26.8333 37.9169V36.273C25.403 36.9742 23.4885 37.3335 21.5833 37.3335C19.6782 37.3335 17.7637 36.9742 16.3333 36.273V37.9169C16.3333 38.4255 18.1732 39.6669 21.5833 39.6669C24.9935 39.6669 26.8333 38.4255 26.8333 37.9169ZM38.5 37.9169V36.3384C37.2785 36.9614 35.6615 37.3335 33.8333 37.3335C32.0052 37.3335 30.3882 36.9614 29.1667 36.3384V37.9169C29.1667 38.534 30.9388 39.6669 33.8333 39.6669C36.7278 39.6669 38.5 38.534 38.5 37.9169ZM33.1858 23.1375C33.3842 23.2705 33.6093 23.3335 33.8322 23.3335C34.209 23.3335 34.5788 23.1515 34.804 22.8144L39.4707 15.8144C39.8277 15.2789 39.683 14.5532 39.1475 14.1962C38.6108 13.8369 37.8863 13.9827 37.5293 14.5194L32.8627 21.5194C32.5057 22.0549 32.6503 22.7805 33.1858 23.1375Z" fill="white"/>
</g>
<defs>
<clipPath id="clip0_333_877">
<rect width="28" height="28" fill="white" transform="translate(14 14)"/>
</clipPath>
</defs>
</svg>
