<svg width="56" height="56" viewBox="0 0 56 56" fill="none" xmlns="http://www.w3.org/2000/svg">
<circle cx="28" cy="28" r="28" fill="#00B962"/>
<g clip-path="url(#clip0_333_869)">
<path d="M42 23.1025C41.967 21.2963 41.2327 19.5738 39.9525 18.2993L36.9915 15.3418C36.7715 15.1293 36.4768 15.0117 36.1709 15.0144C35.865 15.017 35.5724 15.1397 35.356 15.356C35.1397 15.5724 35.017 15.865 35.0144 16.1709C35.0117 16.4768 35.1293 16.7715 35.3418 16.9915L37.3333 18.983V22C37.3333 22.6188 37.5792 23.2123 38.0168 23.6499C38.4543 24.0875 39.0478 24.3333 39.6667 24.3333V36C39.6667 36.3094 39.5438 36.6062 39.325 36.825C39.1062 37.0438 38.8094 37.1667 38.5 37.1667C38.1906 37.1667 37.8938 37.0438 37.675 36.825C37.4562 36.6062 37.3333 36.3094 37.3333 36V34.8333C37.3333 33.9051 36.9646 33.0148 36.3082 32.3585C35.6518 31.7021 34.7616 31.3333 33.8333 31.3333H32.6667V20.8333C32.6648 19.2868 32.0496 17.8042 30.9561 16.7106C29.8625 15.617 28.3799 15.0019 26.8333 15L19.8333 15C18.2868 15.0019 16.8042 15.617 15.7106 16.7106C14.617 17.8042 14.0019 19.2868 14 20.8333L14 37.1667C14.0019 38.7132 14.617 40.1959 15.7106 41.2894C16.8042 42.383 18.2868 42.9981 19.8333 43H26.8333C28.3799 42.9981 29.8625 42.383 30.9561 41.2894C32.0496 40.1959 32.6648 38.7132 32.6667 37.1667V33.6667H33.8333C34.1428 33.6667 34.4395 33.7896 34.6583 34.0084C34.8771 34.2272 35 34.5239 35 34.8333V36C35 36.9283 35.3687 37.8185 36.0251 38.4749C36.6815 39.1313 37.5717 39.5 38.5 39.5C39.4283 39.5 40.3185 39.1313 40.9749 38.4749C41.6313 37.8185 42 36.9283 42 36C42 36 42 23.1235 42 23.1025ZM19.8333 17.3333H26.8333C27.7616 17.3333 28.6518 17.7021 29.3082 18.3585C29.9646 19.0148 30.3333 19.9051 30.3333 20.8333V25.5H16.3333V20.8333C16.3333 19.9051 16.7021 19.0148 17.3585 18.3585C18.0148 17.7021 18.9051 17.3333 19.8333 17.3333ZM30.3333 37.1667C30.3333 38.0949 29.9646 38.9852 29.3082 39.6415C28.6518 40.2979 27.7616 40.6667 26.8333 40.6667H19.8333C18.9051 40.6667 18.0148 40.2979 17.3585 39.6415C16.7021 38.9852 16.3333 38.0949 16.3333 37.1667V27.8333H30.3333V37.1667Z" fill="white"/>
</g>
<defs>
<clipPath id="clip0_333_869">
<rect width="28" height="28" fill="white" transform="translate(14 15)"/>
</clipPath>
</defs>
</svg>
