<svg width="56" height="56" viewBox="0 0 56 56" fill="none" xmlns="http://www.w3.org/2000/svg">
<circle cx="28" cy="28" r="28" fill="#00B962"/>
<g clip-path="url(#clip0_333_885)">
<path d="M41.8084 24.2607C41.5698 23.5011 41.093 22.8384 40.4486 22.3707C39.8042 21.903 39.0264 21.6551 38.2302 21.6637H33.1331L31.5849 16.8383C31.3414 16.0788 30.863 15.4162 30.2187 14.9461C29.5744 14.476 28.7973 14.2227 27.9997 14.2227C27.2021 14.2227 26.4251 14.476 25.7808 14.9461C25.1364 15.4162 24.658 16.0788 24.4146 16.8383L22.8664 21.6637H17.7692C16.9756 21.6648 16.2026 21.9167 15.5607 22.3834C14.9188 22.8501 14.4408 23.5077 14.1949 24.2623C13.9491 25.0169 13.948 25.8299 14.1918 26.5851C14.4357 27.3404 14.9119 27.9993 15.5526 28.4677L19.7012 31.501L18.1239 36.3858C17.869 37.1435 17.8658 37.9632 18.1147 38.7228C18.3636 39.4824 18.8514 40.1412 19.5052 40.601C20.1479 41.0756 20.9267 41.3298 21.7256 41.3258C22.5245 41.3218 23.3007 41.0598 23.9386 40.5788L27.9997 37.5898L32.0621 40.5753C32.7036 41.0472 33.4782 41.3035 34.2745 41.3074C35.0708 41.3113 35.8479 41.0625 36.494 40.5969C37.14 40.1313 37.6218 39.4729 37.8701 38.7162C38.1183 37.9596 38.1202 37.1437 37.8756 36.3858L36.2982 31.501L40.4516 28.4677C41.0996 28.0051 41.5814 27.3463 41.8258 26.5886C42.0701 25.8309 42.064 25.0146 41.8084 24.2607ZM39.0749 26.5835L34.2402 30.1173C34.0417 30.2622 33.8939 30.4661 33.8181 30.6999C33.7422 30.9337 33.7422 31.1855 33.8179 31.4193L35.6554 37.101C35.7484 37.3892 35.7476 37.6994 35.6531 37.9871C35.5587 38.2748 35.3754 38.5251 35.1297 38.7021C34.884 38.8791 34.5885 38.9736 34.2858 38.9721C33.983 38.9705 33.6884 38.873 33.4446 38.6935L28.6904 35.1935C28.4902 35.0464 28.2482 34.9671 27.9997 34.9671C27.7513 34.9671 27.5093 35.0464 27.3091 35.1935L22.5549 38.6935C22.3112 38.8754 22.0158 38.975 21.7117 38.9777C21.4076 38.9805 21.1105 38.8863 20.8635 38.7089C20.6165 38.5314 20.4324 38.2799 20.338 37.9908C20.2436 37.7017 20.2436 37.39 20.3382 37.101L22.1816 31.4193C22.2573 31.1855 22.2572 30.9337 22.1814 30.6999C22.1056 30.4661 21.9578 30.2622 21.7592 30.1173L16.9246 26.5835C16.6811 26.4052 16.5002 26.1546 16.4077 25.8673C16.3152 25.5801 16.3158 25.271 16.4095 24.9841C16.5031 24.6973 16.6851 24.4473 16.9293 24.2701C17.1735 24.0928 17.4675 23.9972 17.7692 23.997H23.7192C23.9662 23.997 24.2069 23.9186 24.4065 23.7731C24.6061 23.6276 24.7543 23.4225 24.8299 23.1873L26.6382 17.5512C26.7311 17.2628 26.913 17.0112 27.1579 16.8328C27.4027 16.6544 27.6979 16.5582 28.0009 16.5582C28.3039 16.5582 28.5991 16.6544 28.8439 16.8328C29.0888 17.0112 29.2707 17.2628 29.3636 17.5512L31.1719 23.1873C31.2475 23.4225 31.3958 23.6276 31.5953 23.7731C31.7949 23.9186 32.0356 23.997 32.2826 23.997H38.2326C38.5343 23.9972 38.8283 24.0928 39.0725 24.2701C39.3167 24.4473 39.4987 24.6973 39.5923 24.9841C39.686 25.271 39.6866 25.5801 39.5941 25.8673C39.5016 26.1546 39.3207 26.4052 39.0772 26.5835H39.0749Z" fill="white"/>
</g>
<defs>
<clipPath id="clip0_333_885">
<rect width="28" height="28" fill="white" transform="translate(14 14)"/>
</clipPath>
</defs>
</svg>
