<svg width="56" height="56" viewBox="0 0 56 56" fill="none" xmlns="http://www.w3.org/2000/svg">
<circle cx="28" cy="28" r="28" fill="#00B962"/>
<path d="M12.052 36V19.2H18.712C19.928 19.2 20.988 19.404 21.892 19.812C22.804 20.212 23.504 20.792 23.992 21.552C24.488 22.312 24.736 23.22 24.736 24.276C24.736 25.108 24.572 25.84 24.244 26.472C23.916 27.096 23.464 27.616 22.888 28.032C22.32 28.448 21.664 28.748 20.92 28.932L25.624 36H21.388L17.344 29.616H15.604V36H12.052ZM15.604 26.748H18.244C19.156 26.748 19.868 26.564 20.38 26.196C20.9 25.82 21.16 25.252 21.16 24.492C21.16 23.708 20.92 23.12 20.44 22.728C19.968 22.336 19.276 22.14 18.364 22.14H15.604V26.748ZM35.2073 36.36C33.6553 36.36 32.3553 36.052 31.3073 35.436C30.2673 34.812 29.4793 33.964 28.9433 32.892C28.4153 31.812 28.1513 30.584 28.1513 29.208V19.2H31.7033V29.304C31.7033 30.552 32.0113 31.484 32.6273 32.1C33.2513 32.716 34.1113 33.024 35.2073 33.024C36.2953 33.024 37.1473 32.716 37.7633 32.1C38.3873 31.484 38.6993 30.552 38.6993 29.304V19.2H42.2633V29.208C42.2633 30.576 41.9953 31.8 41.4593 32.88C40.9313 33.96 40.1433 34.812 39.0953 35.436C38.0473 36.052 36.7513 36.36 35.2073 36.36Z" fill="white"/>
</svg>
