<svg width="56" height="56" viewBox="0 0 56 56" fill="none" xmlns="http://www.w3.org/2000/svg">
<circle cx="28" cy="28" r="28" fill="#00B962"/>
<g clip-path="url(#clip0_333_1777)">
<path d="M19.8383 42.0068C19.199 42.0068 18.5585 41.7758 18.0603 41.3115L15.7387 39.1543C13.4333 36.8501 13.4333 33.1495 15.7083 30.8756C16.8108 29.7743 18.2762 29.1676 19.8337 29.1676C21.3912 29.1676 22.8565 29.7743 23.9578 30.8756C25.0603 31.977 25.667 33.4423 25.667 35.001C25.667 36.5596 25.0603 38.0238 23.9578 39.1251L21.6233 41.308C21.124 41.7746 20.4823 42.008 19.8407 42.008L19.8383 42.0068ZM19.8325 31.4998C18.898 31.4998 18.0183 31.8638 17.3568 32.5253C15.993 33.8891 15.993 36.1093 17.3568 37.4743L19.6482 39.6023C19.7555 39.7015 19.9212 39.7015 20.0285 39.6023L22.335 37.4475C22.9673 36.814 23.3313 35.9355 23.3313 34.9998C23.3313 34.0641 22.9673 33.1856 22.3058 32.5241C21.6455 31.8638 20.767 31.4998 19.8325 31.4998ZM36.1717 26.8401C35.5323 26.8401 34.8918 26.608 34.3937 26.1448L32.072 23.9876C29.7667 21.6835 29.7667 17.9828 32.0417 15.709C33.143 14.6076 34.6083 14.001 36.167 14.001C37.7257 14.001 39.1887 14.6076 40.2912 15.709C42.5662 17.984 42.5662 21.6846 40.2912 23.9585L37.9567 26.1413C37.4573 26.608 36.8145 26.8413 36.1728 26.8413L36.1717 26.8401ZM36.1658 16.3331C35.2302 16.3331 34.3517 16.6971 33.6902 17.3575C32.3263 18.7225 32.3263 20.9426 33.6902 22.3076L35.9803 24.4356C36.0888 24.536 36.2557 24.5336 36.3618 24.4356L38.6683 22.2808C40.0042 20.9438 40.0042 18.7236 38.6403 17.3586C37.9788 16.6971 37.1003 16.3331 36.1658 16.3331ZM41.9992 37.3331C41.9992 34.7595 39.9062 32.6665 37.3325 32.6665H31.4992C30.2123 32.6665 29.1658 31.62 29.1658 30.3331C29.1658 29.345 29.7912 28.4618 30.721 28.1328C31.3288 27.9181 31.6473 27.252 31.4327 26.6441C31.218 26.0363 30.553 25.7166 29.944 25.9325C28.0832 26.5893 26.8325 28.3591 26.8325 30.3331C26.8325 32.9068 28.9255 34.9998 31.4992 34.9998H37.3325C38.6193 34.9998 39.6658 36.0463 39.6658 37.3331C39.6658 38.62 38.6193 39.6665 37.3325 39.6665H26.8325C26.1885 39.6665 25.6658 40.1891 25.6658 40.8331C25.6658 41.4771 26.1885 41.9998 26.8325 41.9998H37.3325C39.9062 41.9998 41.9992 39.9068 41.9992 37.3331Z" fill="white"/>
</g>
<defs>
<clipPath id="clip0_333_1777">
<rect width="28" height="28" fill="white" transform="translate(14 14)"/>
</clipPath>
</defs>
</svg>
