<svg width="56" height="56" viewBox="0 0 56 56" fill="none" xmlns="http://www.w3.org/2000/svg">
<circle cx="28" cy="28" r="28" fill="#00B962"/>
<g clip-path="url(#clip0_333_1785)">
<path d="M40.8327 26.833H38.4993V24.4997C38.4993 24.1903 38.3764 23.8935 38.1576 23.6747C37.9388 23.4559 37.6421 23.333 37.3327 23.333C37.0233 23.333 36.7265 23.4559 36.5077 23.6747C36.2889 23.8935 36.166 24.1903 36.166 24.4997V26.833H33.8327C33.5233 26.833 33.2265 26.9559 33.0077 27.1747C32.7889 27.3935 32.666 27.6903 32.666 27.9997C32.666 28.3091 32.7889 28.6058 33.0077 28.8246C33.2265 29.0434 33.5233 29.1663 33.8327 29.1663H36.166V31.4997C36.166 31.8091 36.2889 32.1058 36.5077 32.3246C36.7265 32.5434 37.0233 32.6663 37.3327 32.6663C37.6421 32.6663 37.9388 32.5434 38.1576 32.3246C38.3764 32.1058 38.4993 31.8091 38.4993 31.4997V29.1663H40.8327C41.1421 29.1663 41.4388 29.0434 41.6576 28.8246C41.8764 28.6058 41.9993 28.3091 41.9993 27.9997C41.9993 27.6903 41.8764 27.3935 41.6576 27.1747C41.4388 26.9559 41.1421 26.833 40.8327 26.833Z" fill="white"/>
<path d="M24.5 28C25.8845 28 27.2378 27.5895 28.389 26.8203C29.5401 26.0511 30.4373 24.9579 30.9672 23.6788C31.497 22.3997 31.6356 20.9922 31.3655 19.6344C31.0954 18.2765 30.4287 17.0292 29.4497 16.0503C28.4708 15.0713 27.2235 14.4046 25.8656 14.1345C24.5078 13.8644 23.1003 14.003 21.8212 14.5328C20.5421 15.0627 19.4489 15.9599 18.6797 17.111C17.9105 18.2622 17.5 19.6155 17.5 21C17.5019 22.856 18.2399 24.6354 19.5523 25.9477C20.8647 27.2601 22.6441 27.9982 24.5 28ZM24.5 16.3333C25.423 16.3333 26.3252 16.607 27.0927 17.1198C27.8601 17.6326 28.4582 18.3614 28.8114 19.2141C29.1646 20.0669 29.2571 21.0052 29.077 21.9104C28.8969 22.8157 28.4525 23.6472 27.7998 24.2998C27.1472 24.9525 26.3157 25.3969 25.4104 25.577C24.5052 25.7571 23.5669 25.6647 22.7141 25.3114C21.8614 24.9582 21.1326 24.3601 20.6198 23.5927C20.107 22.8252 19.8333 21.923 19.8333 21C19.8333 19.7623 20.325 18.5753 21.2002 17.7002C22.0753 16.825 23.2623 16.3333 24.5 16.3333Z" fill="white"/>
<path d="M24.5 30.333C21.7162 30.3361 19.0473 31.4433 17.0788 33.4118C15.1103 35.3803 14.0031 38.0492 14 40.833C14 41.1424 14.1229 41.4392 14.3417 41.658C14.5605 41.8768 14.8572 41.9997 15.1667 41.9997C15.4761 41.9997 15.7728 41.8768 15.9916 41.658C16.2104 41.4392 16.3333 41.1424 16.3333 40.833C16.3333 38.6671 17.1937 36.5899 18.7253 35.0583C20.2568 33.5268 22.3341 32.6663 24.5 32.6663C26.6659 32.6663 28.7432 33.5268 30.2747 35.0583C31.8063 36.5899 32.6667 38.6671 32.6667 40.833C32.6667 41.1424 32.7896 41.4392 33.0084 41.658C33.2272 41.8768 33.5239 41.9997 33.8333 41.9997C34.1428 41.9997 34.4395 41.8768 34.6583 41.658C34.8771 41.4392 35 41.1424 35 40.833C34.9969 38.0492 33.8897 35.3803 31.9212 33.4118C29.9527 31.4433 27.2838 30.3361 24.5 30.333Z" fill="white"/>
</g>
<defs>
<clipPath id="clip0_333_1785">
<rect width="28" height="28" fill="white" transform="translate(14 14)"/>
</clipPath>
</defs>
</svg>
