<svg width="56" height="56" viewBox="0 0 56 56" fill="none" xmlns="http://www.w3.org/2000/svg">
<circle cx="28" cy="28" r="28" fill="#00B962"/>
<g clip-path="url(#clip0_333_1795)">
<path d="M23.1673 41.9997C24.456 41.9997 25.5007 40.955 25.5007 39.6663C25.5007 38.3777 24.456 37.333 23.1673 37.333C21.8787 37.333 20.834 38.3777 20.834 39.6663C20.834 40.955 21.8787 41.9997 23.1673 41.9997Z" fill="white"/>
<path d="M34.8333 41.9997C36.122 41.9997 37.1667 40.955 37.1667 39.6663C37.1667 38.3777 36.122 37.333 34.8333 37.333C33.5447 37.333 32.5 38.3777 32.5 39.6663C32.5 40.955 33.5447 41.9997 34.8333 41.9997Z" fill="white"/>
<path d="M41.8327 17.5H39.4993V15.1667C39.4993 14.8572 39.3764 14.5605 39.1576 14.3417C38.9388 14.1229 38.6421 14 38.3327 14C38.0233 14 37.7265 14.1229 37.5077 14.3417C37.2889 14.5605 37.166 14.8572 37.166 15.1667V17.5H34.8327C34.5233 17.5 34.2265 17.6229 34.0077 17.8417C33.7889 18.0605 33.666 18.3572 33.666 18.6667C33.666 18.9761 33.7889 19.2728 34.0077 19.4916C34.2265 19.7104 34.5233 19.8333 34.8327 19.8333H37.166V22.1667C37.166 22.4761 37.2889 22.7728 37.5077 22.9916C37.7265 23.2104 38.0233 23.3333 38.3327 23.3333C38.6421 23.3333 38.9388 23.2104 39.1576 22.9916C39.3764 22.7728 39.4993 22.4761 39.4993 22.1667V19.8333H41.8327C42.1421 19.8333 42.4388 19.7104 42.6576 19.4916C42.8764 19.2728 42.9993 18.9761 42.9993 18.6667C42.9993 18.3572 42.8764 18.0605 42.6576 17.8417C42.4388 17.6229 42.1421 17.5 41.8327 17.5Z" fill="white"/>
<path d="M40.3995 25.347C40.2487 25.3188 40.0937 25.3208 39.9436 25.3529C39.7936 25.385 39.6514 25.4465 39.5253 25.534C39.3992 25.6215 39.2917 25.7331 39.209 25.8624C39.1264 25.9917 39.0702 26.1362 39.0438 26.2873C38.8983 27.0948 38.4737 27.8256 37.8442 28.3519C37.2147 28.8781 36.4203 29.1665 35.5998 29.1667H21.321L20.2243 19.8333H30.1667C30.4761 19.8333 30.7728 19.7104 30.9916 19.4916C31.2104 19.2728 31.3333 18.9761 31.3333 18.6667C31.3333 18.3572 31.2104 18.0605 30.9916 17.8417C30.7728 17.6229 30.4761 17.5 30.1667 17.5H19.949L19.9 17.0893C19.7995 16.2384 19.3902 15.4538 18.7499 14.8845C18.1095 14.3151 17.2826 14.0004 16.4257 14H16.1667C15.8572 14 15.5605 14.1229 15.3417 14.3417C15.1229 14.5605 15 14.8572 15 15.1667C15 15.4761 15.1229 15.7728 15.3417 15.9916C15.5605 16.2104 15.8572 16.3333 16.1667 16.3333H16.4257C16.7114 16.3334 16.9872 16.4383 17.2008 16.6282C17.4143 16.8181 17.5507 17.0797 17.5842 17.3635L19.1895 31.0135C19.3562 32.4331 20.0382 33.7421 21.1062 34.692C22.1742 35.6419 23.5538 36.1667 24.9832 36.1667H37.1667C37.4761 36.1667 37.7728 36.0438 37.9916 35.825C38.2104 35.6062 38.3333 35.3094 38.3333 35C38.3333 34.6906 38.2104 34.3938 37.9916 34.175C37.7728 33.9562 37.4761 33.8333 37.1667 33.8333H24.9832C24.2593 33.8335 23.5531 33.6091 22.962 33.1913C22.3709 32.7734 21.924 32.1825 21.6827 31.5H35.5998C36.9673 31.5001 38.2914 31.0198 39.3408 30.143C40.3902 29.2661 41.0981 28.0484 41.341 26.7027C41.3683 26.5518 41.3655 26.3971 41.3329 26.2473C41.3004 26.0975 41.2386 25.9556 41.1512 25.8297C41.0637 25.7038 40.9523 25.5964 40.8234 25.5136C40.6944 25.4307 40.5504 25.3741 40.3995 25.347Z" fill="white"/>
</g>
<defs>
<clipPath id="clip0_333_1795">
<rect width="28" height="28" fill="white" transform="translate(15 14)"/>
</clipPath>
</defs>
</svg>
