<svg width="56" height="56" viewBox="0 0 56 56" fill="none" xmlns="http://www.w3.org/2000/svg">
<circle cx="28" cy="28" r="28" fill="#00B962"/>
<g clip-path="url(#clip0_333_1806)">
<path d="M42 28C42 26.103 41.167 24.3133 39.7542 23.1887C39.9175 21.2963 39.2408 19.4425 37.8992 18.0997C36.5575 16.7592 34.7095 16.0802 32.9093 16.2855C31.6867 14.833 29.897 14 28 14C26.103 14 24.3133 14.833 23.1887 16.2458C21.294 16.0825 19.4413 16.758 18.0997 18.1008C16.758 19.4425 16.0825 21.2975 16.2855 23.0907C14.833 24.3133 14 26.103 14 28C14 29.897 14.833 31.6867 16.2458 32.8113C16.0825 34.7037 16.7592 36.5587 18.1008 37.9003C19.4425 39.2432 21.3022 39.921 23.0907 39.7145C24.3133 41.167 26.103 42 28 42C29.897 42 31.6867 41.167 32.8113 39.7542C34.699 39.9163 36.5563 39.242 37.8992 37.8992C39.2397 36.5575 39.9163 34.7025 39.7133 32.9093C41.167 31.6867 42 29.897 42 28ZM38.2118 31.1243C37.653 31.5945 37.3672 32.2828 37.4302 33.0108C37.5328 34.216 37.1035 35.3967 36.2495 36.2495C35.3955 37.1035 34.2172 37.5317 33.0108 37.4302C32.2805 37.3707 31.5957 37.653 31.1255 38.2118C30.3462 39.137 29.2075 39.6678 28 39.6678C26.7925 39.6678 25.6538 39.137 24.8745 38.2118C24.4463 37.7043 23.8397 37.4232 23.1863 37.4232C23.121 37.4232 23.0545 37.4255 22.9892 37.4313C21.791 37.5352 20.6045 37.1047 19.7505 36.2507C18.8977 35.3967 18.4672 34.216 18.571 33.012C18.6328 32.284 18.3493 31.598 17.7893 31.1255C16.8642 30.3473 16.3333 29.2075 16.3333 28.0012C16.3333 26.7948 16.8642 25.655 17.7893 24.8757C18.3482 24.4043 18.6328 23.7172 18.5698 22.9892C18.4672 21.7852 18.8965 20.6045 19.7505 19.7505C20.6045 18.8977 21.7852 18.4707 22.9892 18.571C23.7137 18.6282 24.4032 18.3482 24.8757 17.7893C25.6538 16.8642 26.7937 16.3333 28 16.3333C29.2063 16.3333 30.3462 16.8642 31.1255 17.7893C31.5957 18.347 32.2817 18.6363 33.012 18.5698C34.2078 18.4718 35.3955 18.8965 36.2495 19.7505C37.1023 20.6033 37.5328 21.7852 37.4302 22.9892C37.3672 23.7172 37.6518 24.4043 38.2118 24.8757C39.1358 25.6538 39.6667 26.7937 39.6667 28C39.6667 29.2063 39.1358 30.3462 38.2118 31.1243ZM32.6667 30.3333C32.6667 32.263 31.0963 33.8333 29.1667 33.8333V35C29.1667 35.644 28.644 36.1667 28 36.1667C27.356 36.1667 26.8333 35.644 26.8333 35V33.8333H26.5207C25.2747 33.8333 24.1138 33.1637 23.4897 32.0845C23.1677 31.5268 23.3578 30.814 23.9155 30.4908C24.472 30.1677 25.186 30.359 25.5092 30.9167C25.7168 31.276 26.1053 31.5 26.5207 31.5H29.1667C29.8107 31.5 30.3333 30.9762 30.3333 30.3333C30.3333 29.8923 30.0172 29.519 29.582 29.4467L26.033 28.8552C24.4685 28.595 23.3322 27.2533 23.3322 25.6667C23.3322 23.737 24.9025 22.1667 26.8322 22.1667V21C26.8322 20.356 27.3548 19.8333 27.9988 19.8333C28.6428 19.8333 29.1655 20.356 29.1655 21V22.1667H29.4782C30.723 22.1667 31.885 22.8375 32.5092 23.9167C32.8323 24.4743 32.641 25.1872 32.0845 25.5103C31.5245 25.8323 30.8105 25.6422 30.4908 25.0845C30.282 24.724 29.8947 24.5012 29.4793 24.5012H26.8333C26.1905 24.5012 25.6667 25.025 25.6667 25.6678C25.6667 26.1088 25.9828 26.4822 26.418 26.5545L29.9658 27.146C31.5315 27.4062 32.6667 28.7478 32.6667 30.3345V30.3333Z" fill="white"/>
</g>
<defs>
<clipPath id="clip0_333_1806">
<rect width="28" height="28" fill="white" transform="translate(14 14)"/>
</clipPath>
</defs>
</svg>
