<svg width="126" height="31" viewBox="0 0 126 31" fill="none" xmlns="http://www.w3.org/2000/svg">
<path d="M10.635 11.0874C11.0034 11.2636 11.2357 11.6 11.532 11.8642C12.8294 13.0815 14.0867 14.3469 15.376 15.5722C15.7044 15.8845 16.0488 16.1728 16.3451 16.5091C15.0637 17.6944 13.8384 18.9277 12.5491 20.113C11.9324 20.6736 11.3638 21.2902 10.7151 21.8188C10.6911 21.3222 10.7151 20.8257 10.7071 20.3372C10.7151 20.193 10.6671 20.0569 10.563 19.9688C9.05736 18.5433 7.54376 17.1258 6.05418 15.6763C5.33342 15.0036 4.59664 14.3388 3.93994 13.6101C6.15829 13.578 8.38465 13.6181 10.603 13.5861C10.6831 12.7532 10.627 11.9203 10.635 11.0874Z" fill="#5CB986"/>
<path d="M1.89 12.3447C2.10623 13.8343 1.48157 14.8033 0.912964 15.6843C0.448472 16.405 0 17.0857 0 18.0227C0 19.4322 1.14521 20.5774 2.5547 20.5774C3.9642 20.5774 5.10941 19.4322 5.10941 18.0227C5.1014 15.9165 3.57178 13.9945 1.89 12.3447ZM2.5467 19.4322C3.33153 19.4322 3.9642 18.7996 3.9642 18.0147C3.9642 17.8546 4.09233 17.7344 4.24449 17.7344C4.40466 17.7344 4.52479 17.8626 4.52479 18.0147C4.52479 19.1119 3.63585 20.0008 2.53868 20.0008C2.37852 20.0008 2.25839 19.8727 2.25839 19.7205C2.2664 19.5604 2.39453 19.4322 2.5467 19.4322Z" fill="#5CB986"/>
<path d="M9.50613 20.9937H0.985107V30.9722H9.50613V20.9937Z" fill="#5CB986"/>
<path d="M7.35185 1.77339C8.64122 1.27687 10.0507 0.988552 11.4602 0.964527C13.2861 0.916476 15.1201 0.956522 16.946 0.948514C17.0341 1.62123 16.9861 2.30195 16.9941 2.98267C16.97 4.45623 17.0341 5.92979 16.954 7.40335C15.6006 7.45941 14.2391 7.3553 12.8857 7.48343C11.5163 7.67564 10.1708 8.3884 9.54617 9.50158C9.0977 10.2143 9.15376 11.0632 9.15376 11.8561C7.52003 11.9281 5.8863 11.8961 4.25257 11.9121C3.16341 11.8961 2.07426 11.9522 0.985107 11.8561C0.993116 11.1513 0.985104 10.4386 1.01714 9.73381C1.15328 8.10008 1.70587 6.46635 2.81104 5.12894C3.88418 3.63936 5.54193 2.51818 7.35185 1.77339Z" fill="#5CB986"/>
<path d="M22.7789 30.4057C21.4283 30.4057 20.3113 30.1366 19.4279 29.5984C18.5546 29.0501 17.8996 28.3291 17.463 27.4355C17.0263 26.5419 16.808 25.5671 16.808 24.511V14.8693H20.159V23.8865C20.159 24.9222 20.4637 25.7549 21.0729 26.3845C21.6923 27.0039 22.5453 27.3136 23.6319 27.3136C24.3427 27.3136 24.9773 27.1562 25.5358 26.8414C26.0943 26.5165 26.5361 26.0646 26.861 25.4858C27.1961 24.907 27.3636 24.2368 27.3636 23.4752V14.8693H30.7146V29.9487H27.6987V28.1666C27.1098 28.8774 26.4091 29.4309 25.5968 29.8269C24.7946 30.2127 23.8553 30.4057 22.7789 30.4057ZM42.2601 30.4057C40.6354 30.4057 39.2086 30.0757 37.98 29.4156C36.7513 28.7454 35.7917 27.8112 35.1011 26.613C34.4208 25.4147 34.0806 24.0236 34.0806 22.4395C34.0806 21.2819 34.2786 20.2156 34.6747 19.2408C35.0707 18.2558 35.6292 17.4028 36.3502 16.6819C37.0711 15.9609 37.9139 15.4024 38.8786 15.0064C39.8535 14.6103 40.9146 14.4123 42.0621 14.4123C43.3111 14.4123 44.423 14.6357 45.3978 15.0825C46.3727 15.5192 47.1799 16.1335 47.8197 16.9256C48.4696 17.7176 48.9265 18.6468 49.1905 19.713C49.4647 20.769 49.5104 21.9165 49.3276 23.1554H37.2945C37.2742 24.0591 37.4722 24.8512 37.8886 25.5315C38.3049 26.2017 38.8989 26.7247 39.6707 27.1004C40.4526 27.4761 41.3716 27.664 42.4276 27.664C43.2806 27.664 44.1031 27.537 44.8952 27.2832C45.6974 27.0192 46.4234 26.6333 47.0733 26.1256L48.368 28.5322C47.8806 28.9282 47.2916 29.2684 46.6011 29.5527C45.9106 29.8269 45.1897 30.035 44.4382 30.1772C43.6868 30.3295 42.9607 30.4057 42.2601 30.4057ZM37.4925 20.6878H46.0376C46.0071 19.5505 45.6415 18.6569 44.9409 18.007C44.2504 17.3571 43.2654 17.0322 41.9859 17.0322C40.7471 17.0322 39.7164 17.3571 38.8939 18.007C38.0815 18.6569 37.6144 19.5505 37.4925 20.6878ZM52.8086 29.9487V8.01498H56.1595V29.9487H52.8086ZM67.1476 30.4057C65.6752 30.4057 64.4973 29.9792 63.6138 29.1262C62.7304 28.2732 62.2887 26.9684 62.2887 25.2116V10.4673H65.6397V14.8693H69.8284V17.6415H65.6397V24.4805C65.6397 25.5366 65.8377 26.283 66.2337 26.7196C66.6399 27.1461 67.2085 27.3593 67.9397 27.3593C68.2951 27.3593 68.6302 27.3187 68.945 27.2375C69.2597 27.1562 69.5441 27.0496 69.7979 26.9176L70.392 29.6289C69.9553 29.8523 69.4527 30.035 68.884 30.1772C68.3255 30.3295 67.7467 30.4057 67.1476 30.4057ZM58.9834 17.6415V14.8693H62.7304V17.6415H58.9834ZM73.901 29.9487V14.8693H77.252V29.9487H73.901ZM75.5765 12.1733C74.9774 12.1733 74.4595 11.9803 74.0228 11.5944C73.5862 11.2086 73.3679 10.7008 73.3679 10.0713C73.3679 9.45184 73.5862 8.94919 74.0228 8.56332C74.4595 8.1673 74.9774 7.96928 75.5765 7.96928C76.1756 7.96928 76.6935 8.1673 77.1301 8.56332C77.5668 8.94919 77.7851 9.45184 77.7851 10.0713C77.7851 10.7008 77.5668 11.2086 77.1301 11.5944C76.6935 11.9803 76.1756 12.1733 75.5765 12.1733ZM81.9036 29.9487V14.8693H85.2546V16.9408C85.6608 16.3518 86.1279 15.8746 86.6559 15.509C87.184 15.1333 87.7425 14.8591 88.3314 14.6865C88.9204 14.5037 89.5195 14.4123 90.1288 14.4123C91.3575 14.4123 92.378 14.6814 93.1904 15.2196C94.0129 15.7578 94.5917 16.4483 94.9268 17.2911C95.6782 16.1944 96.5515 15.443 97.5466 15.0368C98.5418 14.6205 99.542 14.4123 100.547 14.4123C101.938 14.4123 103.05 14.6865 103.883 15.2348C104.716 15.7832 105.315 16.4889 105.68 17.3521C106.056 18.2152 106.244 19.1037 106.244 20.0176V29.9487H102.893V20.9924C102.893 19.9465 102.604 19.1037 102.025 18.464C101.456 17.8141 100.623 17.4891 99.5268 17.4891C98.8058 17.4891 98.161 17.6465 97.5923 17.9613C97.0237 18.2761 96.5718 18.7128 96.2367 19.2713C95.9118 19.8196 95.7493 20.4543 95.7493 21.1752V29.9487H92.3983V20.9924C92.3983 19.9465 92.114 19.1037 91.5453 18.464C90.9767 17.8141 90.1389 17.4891 89.0321 17.4891C88.3213 17.4891 87.6765 17.6465 87.0977 17.9613C86.529 18.2761 86.0771 18.7128 85.742 19.2713C85.4171 19.8196 85.2546 20.4543 85.2546 21.1752V29.9487H81.9036ZM117.645 30.4057C116.021 30.4057 114.594 30.0757 113.365 29.4156C112.137 28.7454 111.177 27.8112 110.487 26.613C109.806 25.4147 109.466 24.0236 109.466 22.4395C109.466 21.2819 109.664 20.2156 110.06 19.2408C110.456 18.2558 111.015 17.4028 111.736 16.6819C112.456 15.9609 113.299 15.4024 114.264 15.0064C115.239 14.6103 116.3 14.4123 117.447 14.4123C118.696 14.4123 119.808 14.6357 120.783 15.0825C121.758 15.5192 122.565 16.1335 123.205 16.9256C123.855 17.7176 124.312 18.6468 124.576 19.713C124.85 20.769 124.896 21.9165 124.713 23.1554H112.68C112.66 24.0591 112.858 24.8512 113.274 25.5315C113.69 26.2017 114.284 26.7247 115.056 27.1004C115.838 27.4761 116.757 27.664 117.813 27.664C118.666 27.664 119.488 27.537 120.281 27.2832C121.083 27.0192 121.809 26.6333 122.459 26.1256L123.753 28.5322C123.266 28.9282 122.677 29.2684 121.987 29.5527C121.296 29.8269 120.575 30.035 119.824 30.1772C119.072 30.3295 118.346 30.4057 117.645 30.4057ZM112.878 20.6878H121.423C121.392 19.5505 121.027 18.6569 120.326 18.007C119.636 17.3571 118.651 17.0322 117.371 17.0322C116.132 17.0322 115.102 17.3571 114.279 18.007C113.467 18.6569 113 19.5505 112.878 20.6878Z" fill="#5CB986"/>
</svg>
