<svg width="89" height="22" viewBox="0 0 89 22" fill="none" xmlns="http://www.w3.org/2000/svg">
<path d="M7.4366 7.56494C7.69419 7.68814 7.85659 7.92334 8.06378 8.10814C8.97097 8.95932 9.85016 9.84411 10.7517 10.7009C10.9813 10.9193 11.2221 11.1209 11.4293 11.3561C10.5333 12.1849 9.67656 13.0473 8.77497 13.876C8.34378 14.268 7.94619 14.6992 7.49259 15.0688C7.47579 14.7216 7.49259 14.3744 7.48699 14.0328C7.49259 13.932 7.45899 13.8368 7.38619 13.7752C6.33341 12.7785 5.27503 11.7873 4.23344 10.7737C3.72945 10.3033 3.21426 9.83851 2.75507 9.32891C4.30624 9.30652 5.86302 9.33452 7.41419 9.31212C7.47019 8.72973 7.431 8.14733 7.4366 7.56494Z" fill="#5CB986"/>
<path d="M1.32158 8.44385C1.47278 9.48543 1.03598 10.163 0.638388 10.779C0.313593 11.283 0 11.759 0 12.4142C0 13.3998 0.800786 14.2006 1.78637 14.2006C2.77196 14.2006 3.57275 13.3998 3.57275 12.4142C3.56715 10.9414 2.49756 9.59743 1.32158 8.44385ZM1.78077 13.3998C2.32956 13.3998 2.77196 12.9574 2.77196 12.4086C2.77196 12.2966 2.86155 12.2126 2.96795 12.2126C3.07995 12.2126 3.16395 12.3022 3.16395 12.4086C3.16395 13.1758 2.54236 13.7974 1.77517 13.7974C1.66317 13.7974 1.57917 13.7078 1.57917 13.6014C1.58477 13.4894 1.67437 13.3998 1.78077 13.3998Z" fill="#5CB986"/>
<path d="M6.64715 14.4917H0.688843V21.4692H6.64715V14.4917Z" fill="#5CB986"/>
<path d="M5.14078 1.05217C6.04236 0.704979 7.02795 0.503376 8.01353 0.486577C9.29031 0.452977 10.5727 0.480979 11.8495 0.475379C11.9111 0.945772 11.8775 1.42177 11.8831 1.89776C11.8663 2.92814 11.9111 3.95853 11.8551 4.98891C10.9087 5.02811 9.9567 4.95531 9.01032 5.04491C8.05273 5.17931 7.11195 5.6777 6.67515 6.45609C6.36156 6.95448 6.40076 7.54807 6.40076 8.10246C5.25837 8.15286 4.11599 8.13047 2.97361 8.14167C2.21202 8.13047 1.45043 8.16966 0.688843 8.10246C0.694443 7.60967 0.688841 7.11128 0.71124 6.61848C0.806439 5.4761 1.19283 4.33372 1.96562 3.39853C2.71601 2.35695 3.87519 1.57297 5.14078 1.05217Z" fill="#5CB986"/>
<path d="M15.928 21.0959C14.9837 21.0959 14.2026 20.9077 13.5849 20.5314C12.9742 20.148 12.5162 19.6438 12.2109 19.019C11.9056 18.3941 11.7529 17.7125 11.7529 16.974V10.2321H14.0961V16.5374C14.0961 17.2616 14.3091 17.8439 14.7351 18.2841C15.1683 18.7172 15.7647 18.9338 16.5245 18.9338C17.0215 18.9338 17.4653 18.8237 17.8558 18.6036C18.2464 18.3764 18.5552 18.0604 18.7824 17.6557C19.0168 17.251 19.1339 16.7823 19.1339 16.2498V10.2321H21.4771V20.7764H19.3682V19.5302C18.9564 20.0273 18.4665 20.4142 17.8984 20.6912C17.3375 20.961 16.6807 21.0959 15.928 21.0959ZM29.5502 21.0959C28.4141 21.0959 27.4165 20.8651 26.5573 20.4036C25.6982 19.935 25.0272 19.2817 24.5444 18.4438C24.0686 17.606 23.8307 16.6332 23.8307 15.5255C23.8307 14.7161 23.9692 13.9705 24.2461 13.2889C24.523 12.6001 24.9136 12.0037 25.4177 11.4995C25.9219 10.9954 26.5112 10.6049 27.1857 10.3279C27.8674 10.051 28.6094 9.91256 29.4118 9.91256C30.2851 9.91256 31.0626 10.0688 31.7443 10.3812C32.4259 10.6865 32.9904 11.1161 33.4378 11.6699C33.8922 12.2238 34.2117 12.8735 34.3963 13.619C34.588 14.3575 34.62 15.1599 34.4922 16.0261H26.0781C26.0639 16.6581 26.2023 17.2119 26.4934 17.6876C26.7846 18.1563 27.1999 18.522 27.7396 18.7847C28.2863 19.0474 28.9289 19.1787 29.6674 19.1787C30.2638 19.1787 30.839 19.09 31.3928 18.9125C31.9537 18.7279 32.4614 18.458 32.9159 18.103L33.8212 19.7858C33.4804 20.0628 33.0685 20.3006 32.5857 20.4994C32.1029 20.6912 31.5987 20.8367 31.0733 20.9361C30.5478 21.0426 30.0402 21.0959 29.5502 21.0959ZM26.2165 14.3007H32.1916C32.1703 13.5054 31.9147 12.8806 31.4248 12.4261C30.9419 11.9717 30.2532 11.7445 29.3585 11.7445C28.4922 11.7445 27.7715 11.9717 27.1964 12.4261C26.6284 12.8806 26.3017 13.5054 26.2165 14.3007ZM36.9262 20.7764V5.43923H39.2694V20.7764H36.9262ZM46.9528 21.0959C45.9232 21.0959 45.0995 20.7977 44.4818 20.2012C43.864 19.6048 43.5552 18.6924 43.5552 17.464V7.15401H45.8983V10.2321H48.8273V12.1705H45.8983V16.9527C45.8983 17.6912 46.0368 18.2131 46.3137 18.5184C46.5977 18.8166 46.9954 18.9657 47.5066 18.9657C47.7551 18.9657 47.9895 18.9373 48.2096 18.8805C48.4297 18.8237 48.6285 18.7492 48.806 18.6569L49.2214 20.5527C48.9161 20.7089 48.5646 20.8367 48.167 20.9361C47.7764 21.0426 47.3717 21.0959 46.9528 21.0959ZM41.244 12.1705V10.2321H43.864V12.1705H41.244ZM51.6751 20.7764V10.2321H54.0182V20.7764H51.6751ZM52.8467 8.3469C52.4277 8.3469 52.0656 8.21199 51.7603 7.94217C51.455 7.67235 51.3023 7.31732 51.3023 6.87709C51.3023 6.44396 51.455 6.09248 51.7603 5.82266C52.0656 5.54574 52.4277 5.40728 52.8467 5.40728C53.2656 5.40728 53.6277 5.54574 53.933 5.82266C54.2384 6.09248 54.391 6.44396 54.391 6.87709C54.391 7.31732 54.2384 7.67235 53.933 7.94217C53.6277 8.21199 53.2656 8.3469 52.8467 8.3469ZM57.2709 20.7764V10.2321H59.6141V11.6806C59.8981 11.2688 60.2247 10.935 60.5939 10.6794C60.9632 10.4167 61.3537 10.225 61.7655 10.1043C62.1774 9.97647 62.5963 9.91256 63.0223 9.91256C63.8815 9.91256 64.5951 10.1007 65.1631 10.4771C65.7383 10.8534 66.143 11.3362 66.3773 11.9256C66.9028 11.1587 67.5134 10.6333 68.2092 10.3492C68.9051 10.0581 69.6045 9.91256 70.3075 9.91256C71.2802 9.91256 72.0577 10.1043 72.64 10.4877C73.2222 10.8711 73.6412 11.3646 73.8968 11.9682C74.1595 12.5717 74.2908 13.193 74.2908 13.8321V20.7764H71.9477V14.5137C71.9477 13.7823 71.7453 13.193 71.3406 12.7457C70.943 12.2912 70.3607 12.064 69.5939 12.064C69.0897 12.064 68.6388 12.1741 68.2412 12.3942C67.8436 12.6143 67.5276 12.9196 67.2933 13.3102C67.0661 13.6936 66.9525 14.1374 66.9525 14.6415V20.7764H64.6093V14.5137C64.6093 13.7823 64.4105 13.193 64.0128 12.7457C63.6152 12.2912 63.0294 12.064 62.2555 12.064C61.7584 12.064 61.3075 12.1741 60.9028 12.3942C60.5052 12.6143 60.1892 12.9196 59.9549 13.3102C59.7277 13.6936 59.6141 14.1374 59.6141 14.6415V20.7764H57.2709ZM82.2633 21.0959C81.1272 21.0959 80.1296 20.8651 79.2704 20.4036C78.4113 19.935 77.7403 19.2817 77.2574 18.4438C76.7817 17.606 76.5438 16.6332 76.5438 15.5255C76.5438 14.7161 76.6823 13.9705 76.9592 13.2889C77.2361 12.6001 77.6267 12.0037 78.1308 11.4995C78.6349 10.9954 79.2243 10.6049 79.8988 10.3279C80.5805 10.051 81.3225 9.91256 82.1248 9.91256C82.9982 9.91256 83.7757 10.0688 84.4574 10.3812C85.139 10.6865 85.7035 11.1161 86.1508 11.6699C86.6053 12.2238 86.9248 12.8735 87.1094 13.619C87.3011 14.3575 87.3331 15.1599 87.2053 16.0261H78.7911C78.7769 16.6581 78.9154 17.2119 79.2065 17.6876C79.4976 18.1563 79.913 18.522 80.4527 18.7847C80.9994 19.0474 81.642 19.1787 82.3805 19.1787C82.9769 19.1787 83.552 19.09 84.1059 18.9125C84.6668 18.7279 85.1745 18.458 85.6289 18.103L86.5343 19.7858C86.1934 20.0628 85.7816 20.3006 85.2988 20.4994C84.8159 20.6912 84.3118 20.8367 83.7864 20.9361C83.2609 21.0426 82.7532 21.0959 82.2633 21.0959ZM78.9296 14.3007H84.9047C84.8834 13.5054 84.6278 12.8806 84.1378 12.4261C83.655 11.9717 82.9663 11.7445 82.0716 11.7445C81.2053 11.7445 80.4846 11.9717 79.9095 12.4261C79.3414 12.8806 79.0148 13.5054 78.9296 14.3007Z" fill="#5CB986"/>
</svg>
