<svg width="56" height="56" viewBox="0 0 56 56" fill="none" xmlns="http://www.w3.org/2000/svg">
<circle cx="28" cy="28" r="28" fill="#00B962"/>
<path d="M36.1667 19.8333H33.7435C33.4635 18.2385 32.5325 16.8257 31.1348 15.9332C30.59 15.5855 29.8702 15.7453 29.5237 16.289C29.1772 16.8327 29.3358 17.5537 29.8795 17.9002C30.8933 18.5477 31.5 19.6513 31.5 20.853V33.8333H18.6667C17.3798 33.8333 16.3333 32.7868 16.3333 31.5V30.3333C16.3333 29.6893 15.8118 29.1667 15.1667 29.1667C14.5215 29.1667 14 29.6893 14 30.3333V31.5C14 33.6933 15.5213 35.5378 17.5642 36.0348C17.5222 36.2693 17.5 36.5085 17.5 36.75C17.5 39.0017 19.3317 40.8333 21.5833 40.8333C23.835 40.8333 25.6667 39.0017 25.6667 36.75C25.6667 36.5528 25.6515 36.3592 25.6235 36.1667H30.3765C30.3485 36.3592 30.3333 36.5528 30.3333 36.75C30.3333 39.0017 32.165 40.8333 34.4167 40.8333C36.6683 40.8333 38.5 39.0017 38.5 36.75C38.5 36.5085 38.4778 36.2693 38.4358 36.0348C40.4787 35.5378 42 33.6933 42 31.5V25.6667C42 22.4502 39.3832 19.8333 36.1667 19.8333ZM21.5833 38.5C20.6185 38.5 19.8333 37.7148 19.8333 36.75C19.8333 36.5295 19.8765 36.3347 19.9395 36.1667H23.2283C23.2913 36.3347 23.3345 36.5295 23.3345 36.75C23.3345 37.7148 22.5482 38.5 21.5833 38.5ZM34.4167 38.5C33.4518 38.5 32.6667 37.7148 32.6667 36.75C32.6667 36.5295 32.7098 36.3347 32.7728 36.1667H36.0617C36.1247 36.3347 36.1678 36.5295 36.1678 36.75C36.1678 37.7148 35.3815 38.5 34.4167 38.5ZM39.6667 31.5C39.6667 32.7868 38.6202 33.8333 37.3333 33.8333H33.8333V29.1667H39.6667V31.5ZM39.6667 26.8333H33.8333V22.1667H36.1667C38.0963 22.1667 39.6667 23.737 39.6667 25.6667V26.8333ZM20.1752 21.8248C19.9558 21.6055 19.8333 21.3092 19.8333 21V18.6667C19.8333 18.0227 20.3548 17.5 21 17.5C21.6452 17.5 22.1667 18.0227 22.1667 18.6667V20.517L22.9915 21.3418C23.4477 21.798 23.4477 22.5353 22.9915 22.9915C22.764 23.219 22.4653 23.3333 22.1667 23.3333C21.868 23.3333 21.5693 23.219 21.3418 22.9915L20.1752 21.8248ZM21 28C24.8605 28 28 24.8605 28 21C28 17.1395 24.8605 14 21 14C17.1395 14 14 17.1395 14 21C14 24.8605 17.1395 28 21 28ZM21 16.3333C23.5737 16.3333 25.6667 18.4263 25.6667 21C25.6667 23.5737 23.5737 25.6667 21 25.6667C18.4263 25.6667 16.3333 23.5737 16.3333 21C16.3333 18.4263 18.4263 16.3333 21 16.3333Z" fill="white"/>
</svg>
