<svg width="56" height="56" viewBox="0 0 56 56" fill="none" xmlns="http://www.w3.org/2000/svg">
<circle cx="28" cy="28" r="28" fill="#00B962"/>
<g clip-path="url(#clip0_333_680)">
<path d="M25.5238 35.1423C25.8488 35.4676 26.2348 35.7256 26.6595 35.9016C27.0843 36.0777 27.5396 36.1683 27.9994 36.1683C28.4593 36.1683 28.9146 36.0777 29.3394 35.9016C29.7641 35.7256 30.1501 35.4676 30.4751 35.1423L34.2213 31.3962C34.4221 31.174 34.5299 30.8832 34.5222 30.5838C34.5145 30.2844 34.392 29.9994 34.18 29.7879C33.968 29.5763 33.6828 29.4544 33.3834 29.4474C33.084 29.4403 32.7933 29.5487 32.5716 29.75L29.1579 33.1648L29.1661 15.1667C29.1661 14.8572 29.0432 14.5605 28.8244 14.3417C28.6056 14.1229 28.3089 14 27.9994 14C27.69 14 27.3933 14.1229 27.1745 14.3417C26.9557 14.5605 26.8328 14.8572 26.8328 15.1667L26.8223 33.1427L23.4273 29.75C23.2084 29.5312 22.9115 29.4084 22.602 29.4085C22.2926 29.4086 21.9958 29.5317 21.777 29.7506C21.5583 29.9695 21.4354 30.2663 21.4355 30.5758C21.4357 30.8853 21.5587 31.1821 21.7776 31.4008L25.5238 35.1423Z" fill="white"/>
<path d="M40.8333 32.666C40.5239 32.666 40.2272 32.7889 40.0084 33.0077C39.7896 33.2265 39.6667 33.5233 39.6667 33.8327V38.4993C39.6667 38.8088 39.5438 39.1055 39.325 39.3243C39.1062 39.5431 38.8094 39.666 38.5 39.666H17.5C17.1906 39.666 16.8938 39.5431 16.675 39.3243C16.4562 39.1055 16.3333 38.8088 16.3333 38.4993V33.8327C16.3333 33.5233 16.2104 33.2265 15.9916 33.0077C15.7728 32.7889 15.4761 32.666 15.1667 32.666C14.8572 32.666 14.5605 32.7889 14.3417 33.0077C14.1229 33.2265 14 33.5233 14 33.8327V38.4993C14 39.4276 14.3687 40.3178 15.0251 40.9742C15.6815 41.6306 16.5717 41.9993 17.5 41.9993H38.5C39.4283 41.9993 40.3185 41.6306 40.9749 40.9742C41.6313 40.3178 42 39.4276 42 38.4993V33.8327C42 33.5233 41.8771 33.2265 41.6583 33.0077C41.4395 32.7889 41.1428 32.666 40.8333 32.666Z" fill="white"/>
</g>
<defs>
<clipPath id="clip0_333_680">
<rect width="28" height="28" fill="white" transform="translate(14 14)"/>
</clipPath>
</defs>
</svg>
