<svg width="21" height="20" viewBox="0 0 21 20" fill="none" xmlns="http://www.w3.org/2000/svg">
<path d="M11.332 0.832711C11.332 0.611697 11.4198 0.399736 11.5761 0.243455C11.7324 0.0871751 11.9443 -0.000622318 12.1654 -0.000622318C14.3747 0.00180401 16.493 0.880557 18.0552 2.44283C19.6175 4.00511 20.4963 6.12332 20.4987 8.33271C20.4987 8.55373 20.4109 8.76569 20.2546 8.92197C20.0983 9.07825 19.8864 9.16605 19.6654 9.16605C19.4443 9.16605 19.2324 9.07825 19.0761 8.92197C18.9198 8.76569 18.832 8.55373 18.832 8.33271C18.83 6.56521 18.127 4.87067 16.8772 3.62086C15.6274 2.37105 13.9329 1.66803 12.1654 1.66604C11.9443 1.66604 11.7324 1.57825 11.5761 1.42197C11.4198 1.26569 11.332 1.05372 11.332 0.832711ZM12.1654 4.99938C13.0494 4.99938 13.8973 5.35057 14.5224 5.97569C15.1475 6.60081 15.4987 7.44866 15.4987 8.33271C15.4987 8.55373 15.5865 8.76569 15.7428 8.92197C15.899 9.07825 16.111 9.16605 16.332 9.16605C16.553 9.16605 16.765 9.07825 16.9213 8.92197C17.0776 8.76569 17.1654 8.55373 17.1654 8.33271C17.164 7.00704 16.6368 5.73603 15.6994 4.79864C14.762 3.86124 13.491 3.33403 12.1654 3.33271C11.9443 3.33271 11.7324 3.42051 11.5761 3.57679C11.4198 3.73307 11.332 3.94503 11.332 4.16604C11.332 4.38706 11.4198 4.59902 11.5761 4.7553C11.7324 4.91158 11.9443 4.99938 12.1654 4.99938ZM19.7429 13.9485C20.2258 14.4328 20.497 15.0888 20.497 15.7727C20.497 16.4566 20.2258 17.1126 19.7429 17.5969L18.9845 18.471C12.1595 25.0052 -4.44881 8.40104 1.98452 1.55438L2.94285 0.721044C3.42766 0.251609 4.0778 -0.00808142 4.75261 -0.00184328C5.42742 0.00439485 6.07264 0.27606 6.54869 0.754378C6.57452 0.780211 8.11869 2.78604 8.11869 2.78604C8.57688 3.2674 8.83194 3.90682 8.83085 4.57138C8.82977 5.23594 8.57262 5.87452 8.11285 6.35438L7.14785 7.56771C7.68189 8.8653 8.46707 10.0446 9.45828 11.0378C10.4495 12.031 11.6272 12.8186 12.9237 13.3552L14.1445 12.3844C14.6244 11.925 15.2629 11.6681 15.9273 11.6672C16.5916 11.6663 17.2308 11.9213 17.712 12.3794C17.712 12.3794 19.717 13.9227 19.7429 13.9485ZM18.5962 15.1602C18.5962 15.1602 16.602 13.626 16.5762 13.6002C16.4045 13.43 16.1725 13.3345 15.9308 13.3345C15.689 13.3345 15.457 13.43 15.2854 13.6002C15.2629 13.6235 13.582 14.9627 13.582 14.9627C13.4688 15.0529 13.3339 15.112 13.1909 15.1342C13.0478 15.1564 12.9015 15.1409 12.7662 15.0894C11.0866 14.464 9.56097 13.485 8.29272 12.2186C7.02446 10.9522 6.04319 9.42807 5.41535 7.74938C5.35968 7.61226 5.34154 7.46279 5.36277 7.31633C5.38401 7.16987 5.44386 7.03171 5.53619 6.91605C5.53619 6.91605 6.87535 5.23438 6.89785 5.21271C7.06808 5.04103 7.16359 4.80906 7.16359 4.56729C7.16359 4.32553 7.06808 4.09356 6.89785 3.92188C6.87202 3.89688 5.33785 1.90104 5.33785 1.90104C5.1636 1.7448 4.93619 1.66112 4.70223 1.66717C4.46826 1.67321 4.24547 1.76851 4.07952 1.93354L3.12119 2.76688C-1.58048 8.42021 12.812 22.0144 17.7662 17.3327L18.5254 16.4577C18.7033 16.2929 18.8101 16.0654 18.8233 15.8233C18.8365 15.5812 18.7551 15.3434 18.5962 15.1602Z" fill="#0D182D"/>
</svg>
