<svg width="29" height="28" viewBox="0 0 29 28" fill="none" xmlns="http://www.w3.org/2000/svg">
<g clip-path="url(#clip0_409_1065)">
<path d="M14.75 0C11.9811 0 9.27431 0.821086 6.97202 2.35943C4.66973 3.89777 2.87532 6.08427 1.81569 8.64243C0.756066 11.2006 0.478819 14.0155 1.01901 16.7313C1.55921 19.447 2.89258 21.9416 4.85051 23.8995C6.80845 25.8574 9.30301 27.1908 12.0187 27.731C14.7345 28.2712 17.5494 27.9939 20.1076 26.9343C22.6657 25.8747 24.8522 24.0803 26.3906 21.778C27.9289 19.4757 28.75 16.7689 28.75 14C28.746 10.2882 27.2697 6.72958 24.6451 4.10494C22.0204 1.4803 18.4618 0.0040146 14.75 0ZM14.75 25.6667C12.4426 25.6667 10.1869 24.9824 8.26835 23.7005C6.34978 22.4185 4.85443 20.5964 3.97141 18.4646C3.08839 16.3328 2.85735 13.9871 3.30751 11.7239C3.75767 9.46084 4.86881 7.38203 6.50043 5.75042C8.13204 4.11881 10.2108 3.00767 12.474 2.55751C14.7371 2.10734 17.0828 2.33838 19.2146 3.22141C21.3465 4.10443 23.1685 5.59977 24.4505 7.51835C25.7324 9.43692 26.4167 11.6926 26.4167 14C26.4133 17.0932 25.183 20.0586 22.9958 22.2458C20.8086 24.433 17.8432 25.6633 14.75 25.6667ZM15.9167 12.8333H20.5833V15.1667H15.9167V19.8333H13.5833V15.1667H8.91667V12.8333H13.5833V8.16667H15.9167V12.8333Z" fill="#079F4B"/>
</g>
<defs>
<clipPath id="clip0_409_1065">
<rect width="28" height="28" fill="white" transform="translate(0.75)"/>
</clipPath>
</defs>
</svg>
