<svg width="22" height="22" viewBox="0 0 22 22" fill="none" xmlns="http://www.w3.org/2000/svg">
<path d="M22.0011 10.9997C22.0011 9.5092 21.3466 8.10304 20.2365 7.21937C20.3648 5.73254 19.8332 4.27595 18.779 3.22087C17.7248 2.16762 16.2719 1.63412 14.8584 1.79545C13.0123 -0.547546 9.02384 -0.591546 7.22075 1.76337C4.25717 1.41137 1.40725 4.2017 1.79775 7.14237C-0.545246 8.98854 -0.590163 12.977 1.76567 14.781C1.63734 16.2678 2.169 17.7244 3.22317 18.7795C4.27734 19.8327 5.73209 20.3662 7.14375 20.2049C8.98992 22.5479 12.9783 22.5919 14.7814 20.237C16.2664 20.3644 17.7239 19.8345 18.779 18.7795C19.8323 17.7253 20.3639 16.2678 20.2044 14.8589C21.3466 13.8982 22.0011 12.492 22.0011 11.0015V10.9997ZM7.33442 8.24971C7.33992 7.0507 9.16225 7.0507 9.16775 8.24971C9.16225 9.4487 7.33992 9.4487 7.33442 8.24971ZM9.93042 14.2585C9.64809 14.6829 9.07517 14.791 8.659 14.5124C8.23734 14.2319 8.12367 13.6626 8.40509 13.241L12.0718 7.74095C12.3523 7.3202 12.9206 7.20471 13.3432 7.48704C13.7648 7.76754 13.8785 8.33679 13.5971 8.75846L9.93042 14.2585ZM13.7511 14.6664C12.5521 14.6609 12.5521 12.8385 13.7511 12.833C14.9501 12.8385 14.9501 14.6609 13.7511 14.6664Z" fill="#00B962"/>
</svg>
