<svg width="25" height="25" viewBox="0 0 25 25" fill="none" xmlns="http://www.w3.org/2000/svg">
<g clip-path="url(#clip0_409_1034)">
<path d="M20.4998 0.5H11.4998C10.9468 0.5 10.4998 0.948 10.4998 1.5C10.4998 2.052 10.9468 2.5 11.4998 2.5H20.4998C20.6788 2.5 20.8518 2.524 21.0178 2.568L0.792762 22.793C0.401762 23.184 0.401762 23.816 0.792762 24.207C0.987762 24.402 1.24376 24.5 1.49976 24.5C1.75576 24.5 2.01176 24.402 2.20676 24.207L22.4318 3.982C22.4758 4.147 22.4998 4.321 22.4998 4.5V13.5C22.4998 14.052 22.9468 14.5 23.4998 14.5C24.0528 14.5 24.4998 14.052 24.4998 13.5V4.5C24.4998 2.294 22.7058 0.5 20.4998 0.5Z" fill="#0D182D"/>
</g>
<defs>
<clipPath id="clip0_409_1034">
<rect width="24" height="24" fill="white" transform="translate(0.5 0.5)"/>
</clipPath>
</defs>
</svg>
