<svg width="24" height="25" viewBox="0 0 24 25" fill="none" xmlns="http://www.w3.org/2000/svg">
<g clip-path="url(#clip0_1022_2305)">
<path d="M22.8582 1.64223C21.7691 0.552226 20.1952 0.213226 18.7222 0.768226L2.32815 7.56223C0.392151 8.29123 -0.205849 10.0982 0.0611506 11.5642C0.329151 13.0322 1.52515 14.5122 3.59515 14.5122H9.97415V20.9062C9.97415 22.9752 11.4542 24.1722 12.9212 24.4382C13.1402 24.4782 13.3662 24.4992 13.5952 24.4992C14.9042 24.4992 16.3032 23.8252 16.9142 22.2042L23.7442 5.74723C24.2882 4.30523 23.9492 2.73123 22.8582 1.64223ZM21.8842 5.01123L15.0542 21.4682C14.7082 22.3832 13.9092 22.5862 13.2802 22.4722C12.6482 22.3572 11.9732 21.8852 11.9732 20.9072V13.5132C11.9732 12.9602 11.5261 12.5132 10.9732 12.5132H3.59515C2.61615 12.5132 2.14415 11.8382 2.02915 11.2062C1.91515 10.5752 2.11815 9.77723 3.06415 9.42123L19.4582 2.62723C19.6842 2.54223 19.9132 2.50023 20.1382 2.50023C20.6192 2.50023 21.0802 2.69123 21.4452 3.05623C21.9802 3.59123 22.1392 4.33423 21.8842 5.01123Z" fill="#0D182D"/>
</g>
<defs>
<clipPath id="clip0_1022_2305">
<rect width="24" height="24" fill="white" transform="translate(0 0.5)"/>
</clipPath>
</defs>
</svg>
