<svg width="24" height="25" viewBox="0 0 24 25" fill="none" xmlns="http://www.w3.org/2000/svg">
<g clip-path="url(#clip0_1022_2310)">
<path d="M23.7068 22.7928L17.7378 16.8238C19.3644 14.8344 20.1642 12.2959 19.9716 9.73334C19.7791 7.17081 18.609 4.78031 16.7034 3.0563C14.7977 1.33229 12.3024 0.406674 9.73342 0.470906C7.16447 0.535138 4.71849 1.58431 2.9014 3.4014C1.08431 5.21849 0.0351379 7.66447 -0.029094 10.2334C-0.0933258 12.8024 0.832293 15.2977 2.5563 17.2034C4.28031 19.109 6.67081 20.2791 9.23334 20.4716C11.7959 20.6642 14.3344 19.8644 16.3238 18.2378L22.2928 24.2068C22.4814 24.3889 22.734 24.4897 22.9962 24.4875C23.2584 24.4852 23.5092 24.38 23.6946 24.1946C23.88 24.0092 23.9852 23.7584 23.9875 23.4962C23.9897 23.234 23.8889 22.9814 23.7068 22.7928ZM9.99978 18.4998C8.41753 18.4998 6.87081 18.0306 5.55522 17.1515C4.23963 16.2725 3.21425 15.0231 2.60875 13.5613C2.00324 12.0994 1.84482 10.4909 2.1535 8.93906C2.46218 7.38721 3.22411 5.96175 4.34293 4.84293C5.46175 3.72411 6.88721 2.96218 8.43906 2.6535C9.99091 2.34482 11.5994 2.50324 13.0613 3.10875C14.5231 3.71425 15.7725 4.73963 16.6515 6.05522C17.5306 7.37081 17.9998 8.91753 17.9998 10.4998C17.9974 12.6208 17.1538 14.6542 15.654 16.154C14.1542 17.6538 12.1208 18.4974 9.99978 18.4998Z" fill="#A3A3A3"/>
</g>
<defs>
<clipPath id="clip0_1022_2310">
<rect width="24" height="24" fill="white" transform="translate(0 0.5)"/>
</clipPath>
</defs>
</svg>
