<svg width="56" height="56" viewBox="0 0 56 56" fill="none" xmlns="http://www.w3.org/2000/svg">
<circle cx="28" cy="28" r="28" fill="#00B962"/>
<path d="M26.25 15.75C26.25 14.784 27.034 14 28 14C28.966 14 29.75 14.784 29.75 15.75C29.75 16.716 28.966 17.5 28 17.5C27.034 17.5 26.25 16.716 26.25 15.75ZM37.1 29.9262C36.6497 29.9262 36.2833 29.9262 36.2833 29.9262V35.5285C36.2833 35.5285 36.6497 35.5285 37.1 35.5285C37.5503 35.5285 37.9167 35.1622 37.9167 34.7118V30.7452C37.9167 30.2948 37.5503 29.9285 37.1 29.9285V29.9262ZM25.0833 29.9262C24.633 29.9262 24.2667 30.2925 24.2667 30.7428V34.7095C24.2667 35.1598 24.633 35.5262 25.0833 35.5262C25.5337 35.5262 25.9 35.1598 25.9 34.7095V30.7428C25.9 30.2925 25.5337 29.9262 25.0833 29.9262ZM42 29.75V35.5833C42 37.8385 40.1718 39.6667 37.9167 39.6667H18.0833C15.8282 39.6667 14 37.8385 14 35.5833V29.75C14 27.4948 15.8282 25.6667 18.0833 25.6667H18.8638C18.8767 25.6468 18.8778 25.6247 18.8918 25.6048L23.6927 19.0528C24.073 18.5337 24.8033 18.4205 25.3237 18.802C25.8428 19.1835 25.956 19.9127 25.5745 20.433L21.7397 25.6667H34.2592L30.4243 20.433C30.044 19.9127 30.156 19.1835 30.6752 18.802C31.1943 18.4205 31.9247 18.5337 32.3062 19.0528L37.107 25.6048C37.121 25.6235 37.1233 25.6468 37.135 25.6667H37.9155C40.1707 25.6667 42 27.4948 42 29.75ZM19.4437 31.892C18.7903 31.6272 18.179 31.3472 17.85 31.1978C17.7345 31.1453 17.3507 30.996 17.3448 30.4803C17.3425 30.3275 17.465 29.9658 17.9457 29.8072C18.4438 29.6462 18.9163 29.7535 19.2722 29.9098C19.6268 30.065 20.0422 29.9542 20.279 29.6473C20.6033 29.2273 20.4715 28.6125 19.999 28.3722C19.3585 28.0467 18.4672 27.8122 17.4883 28.1353C16.5597 28.4422 15.9028 29.2448 15.7722 30.2307C15.6485 31.185 16.0405 32.0565 16.8467 32.6212C16.8502 32.6212 17.8243 33.0983 18.8918 33.5312C19.1415 33.6315 19.9477 34.0083 19.845 34.65C19.7692 35.1062 19.271 35.5775 18.5663 35.5775C18.1218 35.5775 17.6878 35.4538 17.3192 35.231C16.9867 35.0303 16.5585 35.0852 16.2832 35.3605C15.8982 35.7443 15.9693 36.3802 16.422 36.68C17.0508 37.0965 17.7928 37.324 18.5675 37.324C19.992 37.324 21.1867 36.3288 21.4095 34.958C21.5763 33.929 21.1482 32.5815 19.4437 31.892ZM27.7667 30.6833C27.7667 29.2028 26.5638 28 25.0833 28C23.6028 28 22.4 29.2028 22.4 30.6833V34.65C22.4 36.1305 23.6028 37.3333 25.0833 37.3333C26.5638 37.3333 27.7667 36.1305 27.7667 34.65V30.6833ZM33.25 36.4C33.25 35.8843 32.8323 35.4667 32.3167 35.4667H31.0322V28.9322C31.0322 28.4165 30.6145 27.9988 30.0988 27.9988C29.5832 27.9988 29.1655 28.4165 29.1655 28.9322V36.3988C29.1655 36.9145 29.5832 37.3322 30.0988 37.3322H32.3155C32.8312 37.3322 33.2488 36.9145 33.2488 36.3988L33.25 36.4ZM39.7833 30.6833C39.7833 29.2017 38.5817 28 37.1 28H35.35C34.8343 28 34.4167 28.4177 34.4167 28.9333V36.4C34.4167 36.9157 34.8343 37.3333 35.35 37.3333H37.1C38.5817 37.3333 39.7833 36.1317 39.7833 34.65V30.6833Z" fill="white"/>
</svg>
