<svg width="56" height="56" viewBox="0 0 56 56" fill="none" xmlns="http://www.w3.org/2000/svg">
<circle cx="28" cy="28" r="28" fill="#00B962"/>
<g clip-path="url(#clip0_333_1832)">
<path d="M26.9862 28.2415C26.3387 28.875 25.4905 29.1912 24.6423 29.1912C23.7883 29.1912 22.9343 28.8703 22.2857 28.2287L20.209 26.1753C19.7505 25.7227 19.747 24.9842 20.1997 24.5257C20.6523 24.0672 21.3897 24.0637 21.8493 24.5163L23.926 26.5697C24.318 26.957 24.9573 26.9605 25.354 26.5732L29.5167 22.4992C29.9775 22.0477 30.7148 22.0582 31.1663 22.5178C31.6167 22.9787 31.6085 23.7172 31.1477 24.1675L26.9862 28.2415ZM42 33.8333V38.5C42 40.4297 40.4297 42 38.5 42H31.0578C28.8412 42 26.915 40.4215 26.481 38.248L25.7355 34.5193C25.529 33.488 25.7938 32.4287 26.4612 31.6143C27.1273 30.8012 28.1143 30.3333 29.1667 30.3333H32.8802L32.2035 26.5242C32.137 26.1345 32.1697 25.9187 32.1953 25.8253C32.4147 25.0203 33.0703 24.5 33.866 24.5C34.1145 24.5 34.3653 24.5513 34.6127 24.654C34.909 24.7765 35.1995 25.0822 35.4083 25.4928L37.9668 30.3333H38.4988C40.4285 30.3333 42 31.9037 42 33.8333ZM31.0578 39.6667H37.3333V32.6667H29.1678C28.8167 32.6667 28.4888 32.8218 28.2672 33.0925C28.0443 33.3643 27.9557 33.7178 28.0245 34.0608L28.77 37.7895C28.9882 38.8768 29.9507 39.6655 31.059 39.6655L31.0578 39.6667ZM23.0732 34.636C19.1053 33.4903 16.3333 29.8013 16.3333 25.6667C16.3333 20.5205 20.5205 16.3333 25.6667 16.3333C29.2367 16.3333 32.4415 18.3202 34.0305 21.5192C34.3163 22.0967 35.0152 22.3335 35.595 22.0453C36.1713 21.7583 36.407 21.0583 36.12 20.482C34.1332 16.4827 30.128 14 25.6667 14C19.2337 14 14 19.2337 14 25.6667C14 30.835 17.465 35.4445 22.4268 36.8772C22.5353 36.9075 22.6438 36.9227 22.75 36.9227C23.2575 36.9227 23.723 36.5913 23.8712 36.0792C24.0497 35.4608 23.6927 34.8145 23.0732 34.636Z" fill="white"/>
</g>
<defs>
<clipPath id="clip0_333_1832">
<rect width="28" height="28" fill="white" transform="translate(14 14)"/>
</clipPath>
</defs>
</svg>
