<svg width="56" height="56" viewBox="0 0 56 56" fill="none" xmlns="http://www.w3.org/2000/svg">
<circle cx="28" cy="28" r="28" fill="#00B962"/>
<g clip-path="url(#clip0_333_1840)">
<path d="M34.7223 24.4996C32.774 24.4996 31.0578 24.8904 29.778 25.5414V19.2496C29.778 16.5686 25.8102 15.1662 21.889 15.1662C17.9678 15.1662 14 16.5686 14 19.2496V37.9162C14 40.5972 17.9678 41.9996 21.889 41.9996C24.4977 41.9996 27.1203 41.3754 28.588 40.1702C29.8585 41.2867 32.0822 41.9996 34.7223 41.9996C38.8722 41.9996 42 40.2437 42 37.9162V28.5829C42 26.2554 38.871 24.4996 34.7223 24.4996ZM39.6667 33.2496C39.6667 33.8504 37.7417 34.9996 34.7223 34.9996C31.703 34.9996 29.778 33.8504 29.778 33.2496V31.6244C31.0578 32.2754 32.7752 32.6662 34.7223 32.6662C36.6695 32.6662 38.3868 32.2754 39.6667 31.6244V33.2496ZM27.4435 23.9162C27.4435 24.3666 25.5325 25.6662 21.8878 25.6662C18.2432 25.6662 16.3322 24.3666 16.3322 23.9162V22.2246C17.829 22.9561 19.8625 23.3329 21.8878 23.3329C23.9132 23.3329 25.9467 22.9561 27.4435 22.2246V23.9162ZM21.8878 27.9996C23.9132 27.9996 25.9467 27.6227 27.4435 26.8912V28.5829C27.4435 29.0332 25.5325 30.3329 21.8878 30.3329C18.2432 30.3329 16.3322 29.0332 16.3322 28.5829V26.8912C17.829 27.6227 19.8625 27.9996 21.8878 27.9996ZM16.3322 31.5579C17.829 32.2894 19.8625 32.6662 21.8878 32.6662C23.9132 32.6662 25.9467 32.2894 27.4435 31.5579V33.2496C27.4435 33.6999 25.5325 34.9996 21.8878 34.9996C18.2432 34.9996 16.3322 33.6999 16.3322 33.2496V31.5579ZM34.7212 26.8329C37.7405 26.8329 39.6655 27.9821 39.6655 28.5829C39.6655 29.1837 37.7405 30.3329 34.7212 30.3329C31.7018 30.3329 29.7768 29.1837 29.7768 28.5829C29.7768 27.9821 31.7018 26.8329 34.7212 26.8329ZM21.889 17.4996C25.5337 17.4996 27.4447 18.7992 27.4447 19.2496C27.4447 19.6999 25.5337 20.9996 21.889 20.9996C18.2443 20.9996 16.3333 19.6999 16.3333 19.2496C16.3333 18.7992 18.2443 17.4996 21.889 17.4996ZM21.889 39.6662C18.2443 39.6662 16.3333 38.3666 16.3333 37.9162V36.2246C17.8302 36.9561 19.8637 37.3329 21.889 37.3329C23.9143 37.3329 25.9478 36.9561 27.4447 36.2246V37.9162C27.4447 38.3666 25.5337 39.6662 21.889 39.6662ZM34.7223 39.6662C31.703 39.6662 29.778 38.5171 29.778 37.9162V36.2911C31.0578 36.9421 32.7752 37.3329 34.7223 37.3329C36.6695 37.3329 38.3868 36.9421 39.6667 36.2911V37.9162C39.6667 38.5171 37.7417 39.6662 34.7223 39.6662ZM32.186 18.6114C31.7333 18.1529 31.738 17.4144 32.1977 16.9617L34.5123 14.6762C35.4118 13.7767 36.8842 13.7767 37.793 14.6809L40.1298 16.9571C40.5918 17.4062 40.6012 18.1447 40.1532 18.6067C39.7017 19.0676 38.9643 19.0781 38.5035 18.6289L37.3333 17.4902V22.1662C37.3333 22.8102 36.8118 23.3329 36.1667 23.3329C35.5215 23.3329 35 22.8102 35 22.1662V17.4762C34.5438 17.8449 33.6945 19.0454 33.0167 18.9579C32.7157 18.9579 32.4147 18.8424 32.186 18.6114Z" fill="white"/>
</g>
<defs>
<clipPath id="clip0_333_1840">
<rect width="28" height="28" fill="white" transform="translate(14 14)"/>
</clipPath>
</defs>
</svg>
