<svg width="41" height="40" viewBox="0 0 41 40" fill="none" xmlns="http://www.w3.org/2000/svg">
<g clip-path="url(#clip0_546_5052)">
<path d="M20.3333 40C31.379 40 40.3333 31.0457 40.3333 20C40.3333 8.95431 31.379 0 20.3333 0C9.28762 0 0.333313 8.95431 0.333313 20C0.333313 31.0457 9.28762 40 20.3333 40Z" fill="url(#paint0_linear_546_5052)"/>
<path d="M13.8714 21.4619L16.2442 28.0296C16.2442 28.0296 16.5409 28.6441 16.8586 28.6441C17.1762 28.6441 21.9011 23.7288 21.9011 23.7288L27.1552 13.5804L13.9561 19.7666L13.8714 21.4619Z" fill="#C8DAEA"/>
<path d="M17.0175 23.1464L16.562 27.9874C16.562 27.9874 16.3713 29.4707 17.8543 27.9874C19.3373 26.504 20.7568 25.3602 20.7568 25.3602" fill="#A9C6D8"/>
<path d="M13.9143 21.6964L9.03332 20.106C9.03332 20.106 8.44999 19.8694 8.63782 19.3327C8.67649 19.222 8.75449 19.1279 8.98782 18.966C10.0693 18.2122 29.0055 11.406 29.0055 11.406C29.0055 11.406 29.5402 11.2259 29.8555 11.3457C29.9335 11.3698 30.0037 11.4143 30.0589 11.4745C30.1141 11.5346 30.1523 11.6084 30.1697 11.6882C30.2037 11.8291 30.218 11.9741 30.212 12.119C30.2105 12.2444 30.1953 12.3605 30.1838 12.5427C30.0685 14.4035 26.6172 28.2915 26.6172 28.2915C26.6172 28.2915 26.4107 29.1042 25.6708 29.132C25.489 29.1379 25.3079 29.1071 25.1382 29.0415C24.9686 28.9758 24.8139 28.8767 24.6833 28.75C23.2315 27.5012 18.2135 24.1289 17.1047 23.3872C17.0796 23.3701 17.0586 23.3479 17.0429 23.3221C17.0272 23.2962 17.0172 23.2672 17.0137 23.2372C16.9982 23.159 17.0832 23.0622 17.0832 23.0622C17.0832 23.0622 25.8208 15.2955 26.0533 14.4802C26.0713 14.417 26.0033 14.3859 25.912 14.4135C25.3317 14.627 15.2713 20.9802 14.161 21.6814C14.0811 21.7055 13.9966 21.7107 13.9143 21.6964Z" fill="white"/>
</g>
<defs>
<linearGradient id="paint0_linear_546_5052" x1="20.3333" y1="40" x2="20.3333" y2="0" gradientUnits="userSpaceOnUse">
<stop stop-color="#1D93D2"/>
<stop offset="1" stop-color="#38B0E3"/>
</linearGradient>
<clipPath id="clip0_546_5052">
<rect width="40" height="40" fill="white" transform="translate(0.333313)"/>
</clipPath>
</defs>
</svg>
