<svg width="41" height="40" viewBox="0 0 41 40" fill="none" xmlns="http://www.w3.org/2000/svg">
<g clip-path="url(#clip0_546_5048)">
<path d="M34.3333 0H6.33333C3.01962 0 0.333328 2.68629 0.333328 6V34C0.333328 37.3137 3.01962 40 6.33333 40H34.3333C37.647 40 40.3333 37.3137 40.3333 34V6C40.3333 2.68629 37.647 0 34.3333 0Z" fill="#665CA7"/>
<path d="M21.3489 14.5312C21.6699 14.5203 21.9897 14.5755 22.2885 14.6934C22.5872 14.8112 22.8586 14.9892 23.0857 15.2163C23.3128 15.4434 23.4908 15.7148 23.6087 16.0136C23.7265 16.3123 23.7817 16.6321 23.7708 16.9531M20.8021 12.4218C21.4789 12.4211 22.1488 12.5578 22.7712 12.8236C23.3936 13.0894 23.9556 13.4788 24.4231 13.9682C24.8906 14.4576 25.2539 15.0368 25.4909 15.6708C25.7279 16.3047 25.8338 16.9802 25.8021 17.6562M20.0989 10.3906C21.1549 10.366 22.2044 10.5625 23.1799 10.9674C24.1555 11.3723 25.0357 11.9766 25.764 12.7417C26.4922 13.5068 27.0525 14.4156 27.4089 15.4099C27.7653 16.4043 27.9098 17.4621 27.8333 18.5156" stroke="white" stroke-width="0.78125" stroke-linecap="round"/>
<path fill-rule="evenodd" clip-rule="evenodd" d="M7.7552 18.125C7.7552 11.0156 9.08333 6.64062 20.3333 6.64062C31.5833 6.64062 32.9115 11.0156 32.9115 18.125C32.9115 25.2344 31.5833 29.6094 20.3333 29.6094L18.3021 29.5312L14.1615 34.4531C13.849 34.7656 13.5365 34.5312 13.5365 34.2188V28.8281C13.0677 28.8281 11.1146 27.8906 10.5677 27.3438C8.84895 25.5469 7.7552 24.2188 7.7552 18.125ZM5.41145 18.125C5.41145 8.28125 9.70833 4.29688 20.3333 4.29688C30.9583 4.29688 35.2552 8.28125 35.2552 18.125C35.2552 27.9688 30.9583 31.9531 20.3333 31.9531C19.5521 31.9531 18.9271 31.9531 17.8333 31.7969L14.8646 35.1562C14.3177 35.7812 12.6771 36.0156 12.6771 34.1406V30.8594C12.2083 30.8594 11.1146 30.3906 9.6302 29.4531C8.14583 28.4375 5.41145 26.0156 5.41145 18.125ZM22.8333 21.4062C23.3542 20.7292 23.9792 20.625 24.7083 21.0938L27.5208 23.2031C27.9375 23.724 27.7552 24.4531 26.974 25.3906C26.1927 26.3281 25.4635 26.7188 24.7865 26.5625C22.026 25.9375 19.3698 24.375 16.8177 21.875C14.2656 19.375 12.6771 16.6667 12.0521 13.75C12.0521 12.7083 12.7031 11.8229 14.0052 11.0938C14.6823 10.625 15.2552 10.7552 15.724 11.4844L17.6771 14.2188C17.9896 14.8438 17.8073 15.4167 17.1302 15.9375C14.0833 17.1094 21.1146 24.6875 22.8333 21.4062Z" fill="white"/>
</g>
<defs>
<clipPath id="clip0_546_5048">
<rect width="40" height="40" fill="white" transform="translate(0.333328)"/>
</clipPath>
</defs>
</svg>
