<svg width="41" height="40" viewBox="0 0 41 40" fill="none" xmlns="http://www.w3.org/2000/svg">
<g clip-path="url(#clip0_546_5042)">
<g filter="url(#filter0_f_546_5042)">
<path d="M12.9393 33.2213L13.5082 33.5668C15.8976 35.0203 18.6372 35.7892 21.431 35.7905H21.4368C30.0166 35.7905 36.9991 28.6349 37.0027 19.8402C37.0042 15.5783 35.3866 11.5706 32.4477 8.55589C31.0062 7.06911 29.2914 5.89016 27.4024 5.08727C25.5135 4.28438 23.4879 3.87351 21.4429 3.87843C12.8566 3.87843 5.87381 11.0332 5.87076 19.8274C5.86653 22.8304 6.69155 25.7733 8.25044 28.3159L8.6208 28.9191L7.048 34.8045L12.9393 33.2213ZM2.55132 39.364L5.20845 29.42C3.56973 26.5099 2.7076 23.2084 2.70862 19.8261C2.71295 9.24494 11.1138 0.636719 21.4371 0.636719C26.4467 0.639328 31.1488 2.63758 34.6851 6.26491C38.2214 9.89223 40.1671 14.7137 40.1653 19.8415C40.1607 30.4219 31.7586 39.0316 21.4368 39.0316H21.4287C18.2946 39.0303 15.2149 38.2244 12.4794 36.6955L2.55132 39.364Z" fill="#B3B3B3"/>
</g>
<path d="M2.35886 39.1663L5.01599 29.2222C3.37445 26.3051 2.5122 22.9959 2.51616 19.6283C2.52049 9.04718 10.9213 0.438965 21.2446 0.438965C26.2542 0.441574 30.9563 2.43983 34.4926 6.06715C38.0289 9.69448 39.9746 14.516 39.9728 19.6437C39.9683 30.2241 31.5662 38.8339 21.2444 38.8339H21.2362C18.1021 38.8326 15.0224 38.0267 12.2869 36.4978L2.35886 39.1663Z" fill="white"/>
<path d="M21.2504 3.68071C12.6641 3.68071 5.68129 10.8354 5.67824 19.6297C5.67401 22.6327 6.49903 25.5756 8.05792 28.1181L8.42828 28.7216L6.85548 34.607L12.747 33.0236L13.3159 33.3691C15.7053 34.8225 18.4449 35.5912 21.2387 35.5927H21.2446C29.8243 35.5927 36.8071 28.4372 36.8104 19.6425C36.8169 17.5463 36.4176 15.4696 35.6358 13.5326C34.8539 11.5956 33.7049 9.83689 32.2554 8.35817C30.8139 6.87136 29.0991 5.69238 27.21 4.88949C25.321 4.0866 23.2954 3.67575 21.2504 3.68071Z" fill="url(#paint0_linear_546_5042)"/>
<path fill-rule="evenodd" clip-rule="evenodd" d="M16.5639 11.606C16.2131 10.8073 15.844 10.7912 15.5109 10.7773L14.6139 10.7661C14.3018 10.7661 13.7948 10.8861 13.3661 11.3662C12.9375 11.8462 11.7281 13.0065 11.7281 15.3663C11.7281 17.7262 13.4051 20.0065 13.6387 20.3269C13.8724 20.6473 16.8759 25.6443 21.6325 27.5669C25.5853 29.1647 26.3896 28.8469 27.2479 28.7671C28.1062 28.6872 30.0165 27.6068 30.4062 26.4868C30.7959 25.3667 30.7962 24.4071 30.6793 24.2065C30.5625 24.0059 30.2504 23.8866 29.7821 23.6466C29.3137 23.4066 27.0135 22.2463 26.5846 22.0862C26.1557 21.926 25.8439 21.8464 25.5315 22.3264C25.2192 22.8065 24.3235 23.8864 24.0504 24.2065C23.7773 24.5266 23.5047 24.5668 23.0363 24.327C22.5679 24.0873 21.0611 23.5806 19.2732 21.9466C17.8821 20.6752 16.9431 19.1051 16.6698 18.6253C16.3964 18.1455 16.6408 17.8856 16.8754 17.6466C17.0854 17.4316 17.3433 17.0865 17.5777 16.8065C17.8121 16.5266 17.8893 16.3265 18.045 16.0069C18.2008 15.6873 18.1232 15.4065 18.0061 15.1668C17.889 14.927 16.9798 12.5546 16.5639 11.606Z" fill="white"/>
</g>
<defs>
<filter id="filter0_f_546_5042" x="0.708822" y="-1.20577" width="41.299" height="42.4123" filterUnits="userSpaceOnUse" color-interpolation-filters="sRGB">
<feFlood flood-opacity="0" result="BackgroundImageFix"/>
<feBlend mode="normal" in="SourceGraphic" in2="BackgroundImageFix" result="shape"/>
<feGaussianBlur stdDeviation="0.921246" result="effect1_foregroundBlur_546_5042"/>
</filter>
<linearGradient id="paint0_linear_546_5042" x1="20.9274" y1="5.59573" x2="21.0932" y2="32.8665" gradientUnits="userSpaceOnUse">
<stop stop-color="#57D163"/>
<stop offset="1" stop-color="#23B33A"/>
</linearGradient>
<clipPath id="clip0_546_5042">
<rect width="40" height="40" fill="white" transform="translate(0.333328)"/>
</clipPath>
</defs>
</svg>
